<svg xmlns="http://www.w3.org/2000/svg" width="49.974" height="42.048" viewBox="0 0 49.974 42.048">
  <g id="cash-money-finance-delete-svgrepo-com" transform="translate(0 -5)">
    <g id="Grupo_302" data-name="Grupo 302" transform="translate(0 5)">
      <path id="Trazado_402" data-name="Trazado 402" d="M18.247,11C14.811,11,12,14.436,12,18.808a8.281,8.281,0,0,0,4.06,7.34,15.3,15.3,0,0,1,8.277-9.058C23.713,13.655,21.214,11,18.247,11Z" transform="translate(6.74 -1.63)" fill="#f3bc1a"/>
      <path id="Trazado_403" data-name="Trazado 403" d="M48.412,5H1.562A1.475,1.475,0,0,0,0,6.562V37.8a1.475,1.475,0,0,0,1.562,1.562H22.644a15.5,15.5,0,0,1-.781-4.685H10.932A1.475,1.475,0,0,1,9.37,33.11a3.133,3.133,0,0,0-3.123-3.123,1.475,1.475,0,0,1-1.562-1.562V15.932A1.475,1.475,0,0,1,6.247,14.37,3.133,3.133,0,0,0,9.37,11.247a1.475,1.475,0,0,1,1.562-1.562h28.11A1.475,1.475,0,0,1,40.6,11.247a3.133,3.133,0,0,0,3.123,3.123,1.475,1.475,0,0,1,1.562,1.562v5.31a15.176,15.176,0,0,1,4.685,4.217V6.562A1.475,1.475,0,0,0,48.412,5Z" transform="translate(0 -5)" fill="#f3bc1a"/>
    </g>
    <path id="Trazado_404" data-name="Trazado 404" d="M19.606,19.606a12.478,12.478,0,1,0,17.647,0A12.536,12.536,0,0,0,19.606,19.606ZM32.88,26.321l-2.186,2.186,2.186,2.186a1.546,1.546,0,0,1-2.186,2.186l-2.186-2.186L26.321,32.88a1.546,1.546,0,0,1-2.186-2.186l2.186-2.186-2.186-2.186a1.546,1.546,0,0,1,2.186-2.186l2.186,2.186,2.186-2.186a1.546,1.546,0,0,1,2.186,2.186Z" transform="translate(8.973 6.164)" fill="#f3bc1a"/>
  </g>
</svg>
