<svg xmlns="http://www.w3.org/2000/svg" width="50.898" height="56.577" viewBox="0 0 50.898 56.577">
  <g id="mother-with-baby-svgrepo-com" transform="translate(-24.956 0)">
    <g id="Grupo_301" data-name="Grupo 301" transform="translate(24.956 0)">
      <path id="Trazado_394" data-name="Trazado 394" d="M74.079,11.83a5.94,5.94,0,0,0,6-8.68A5.941,5.941,0,0,0,69.432,8.4,5.989,5.989,0,0,0,74.079,11.83Z" transform="translate(-63.904 0)" fill="#f3b90e"/>
      <path id="Trazado_395" data-name="Trazado 395" d="M244.947,246.295a11.066,11.066,0,0,0,2.618-5.7,10.555,10.555,0,0,0-.9-5.889,12.156,12.156,0,0,0-3.738-4.543,14.463,14.463,0,0,0-5.739-2.562,15.558,15.558,0,0,0-2.56-.309.74.74,0,0,0-.768.739V239h-10.5v-5.346a.739.739,0,0,0-.555-.716l-2.7-.694a.739.739,0,0,0-.9.532l-.365,1.42a.739.739,0,0,0,.532.9l1.045.268v3.274c0,.292,0,.638.017.989.205,4.736,3.6,8.906,8.648,10.625.012,0,.025.006.037.009l-3.246,2.918a2.425,2.425,0,1,0,2.1,2.67l5-5.559h2.773l4.947,5.5a2.43,2.43,0,1,0,2.147-2.621l-3.249-2.92.048-.017A14.157,14.157,0,0,0,244.947,246.295Z" transform="translate(-196.764 -201.433)" fill="#f3b90e"/>
      <path id="Trazado_396" data-name="Trazado 396" d="M47,124.218a24.332,24.332,0,0,0-1.857-8.435,13.528,13.528,0,0,0-5.352-6.319,8.724,8.724,0,0,0-3.887-1.194,6.841,6.841,0,0,0-3.265.836,27.331,27.331,0,0,0-3.156,1.925,14.105,14.105,0,0,0-3.1,2.851,6.814,6.814,0,0,0-1.355,2.9,4.892,4.892,0,0,0,.524,3.238,8.767,8.767,0,0,0,3.845,3.412L26.383,137.2a.952.952,0,0,0,.934,1.135H30.4l.592,12.234a2.058,2.058,0,0,0,4.1.134c0-.042.008-.085.01-.127l.634-12.241h.331l.592,12.234a2.058,2.058,0,0,0,4.1.134c0-.042.008-.085.01-.127l.634-12.241h2.984a.952.952,0,0,0,.933-1.138l-3.512-16.572v-1.339a25.836,25.836,0,0,1,1.7,7.964l.015.18a1.764,1.764,0,0,0,3.521-.135C47.046,124.939,47.026,124.66,47,124.218Zm-5.769-.795c.143-.314.284-.624,0,0s-.145.318,0,0a2.509,2.509,0,0,1-3.321,1.241l-3.7-1.685a1.4,1.4,0,0,0-.874-2.4,3.66,3.66,0,0,0-.594.04c-.238.021-.478.031-.717.033A2.5,2.5,0,0,1,32,120.2a2.453,2.453,0,0,1-3.35-3.2l.066-.146a2.453,2.453,0,0,1,4.655.621,2.447,2.447,0,0,1,.02.645,2.5,2.5,0,0,1,2.152-.035l4.438,2.019A2.509,2.509,0,0,1,41.232,123.423Z" transform="translate(-24.956 -95.952)" fill="#f3b90e"/>
      <path id="Trazado_397" data-name="Trazado 397" d="M167.986,241.464l0,0,0,.007Z" transform="translate(-151.712 -213.989)" fill="#f3b90e"/>
    </g>
  </g>
</svg>
