<svg xmlns="http://www.w3.org/2000/svg" width="40.133" height="52.727" viewBox="0 0 40.133 52.727">
  <path id="birth-svgrepo-com" d="M17.749,8.257a7.257,7.257,0,1,1,7.257,7.257A7.258,7.258,0,0,1,17.749,8.257Zm15.641,9.072H16.623L4.94,29.012,8.788,32.86,17.749,23.9V30.03H32.264V23.9l8.961,8.961,3.848-3.848Zm-6.57,23.586,5.443-5.443V31.844H17.749v3.629l5.443,5.443Zm-5.71.486-3.848-3.848-6.991,6.991,9.182,9.182L23.3,49.878l-5.334-5.334Zm7.791,0,3.142,3.142-5.332,5.332,3.848,3.848,9.181-9.181L32.75,37.554Z" transform="translate(-4.94 -1)" fill="#f3b90e"/>
</svg>
