<svg xmlns="http://www.w3.org/2000/svg" width="53.72" height="38.815" viewBox="0 0 53.72 38.815">
  <g id="student-cap-svgrepo-com" transform="translate(0 -71.031)">
    <path id="Trazado_406" data-name="Trazado 406" d="M53.073,82.508,29.3,71.565a5.843,5.843,0,0,0-4.882,0L.647,82.508a1.112,1.112,0,0,0,0,2.02L24.419,95.471a5.835,5.835,0,0,0,4.882,0l18.761-8.636v8.7a1.491,1.491,0,0,0-.254,2.912l-1.269,8.372h5.842l-1.269-8.372a1.491,1.491,0,0,0-.255-2.912V85.548l2.216-1.02a1.112,1.112,0,0,0,0-2.02Z" fill="#f3b90e"/>
    <path id="Trazado_407" data-name="Trazado 407" d="M127.819,294.808a8.074,8.074,0,0,1-3.4-.745l-11.628-5.353v10.664c0,2.341,7.074,5.311,15.026,5.311s15.026-2.97,15.026-5.311V288.71l-11.628,5.353A8.069,8.069,0,0,1,127.819,294.808Z" transform="translate(-100.959 -194.84)" fill="#f3b90e"/>
  </g>
</svg>
