<svg xmlns="http://www.w3.org/2000/svg" width="49.99" height="47.106" viewBox="0 0 49.99 47.106">
  <g id="time-remove-svgrepo-com" transform="translate(2 -1)">
    <path id="Trazado_398" data-name="Trazado 398" d="M45.956,25.681q.1-1.063.1-2.153A22.529,22.529,0,1,0,23.529,46.058q1.089,0,2.153-.1a14.365,14.365,0,0,1-2.834-4.021A18.419,18.419,0,1,1,41.935,22.848,14.365,14.365,0,0,1,45.956,25.681Z" transform="translate(-3 0)" fill="#f3bc1a"/>
    <path id="Trazado_399" data-name="Trazado 399" d="M16.822,20.09l-1.726-1V7.048a2.048,2.048,0,1,0-4.1,0V20.292a1.962,1.962,0,0,0,.259.936,2.04,2.04,0,0,0,.8.842l1.76,1.016A14.418,14.418,0,0,1,16.822,20.09Z" transform="translate(10.365 4.192)" fill="#f3bc1a"/>
    <path id="Trazado_400" data-name="Trazado 400" d="M17.048,17a2.048,2.048,0,1,0,0,4.1H25.24a2.048,2.048,0,0,0,0-4.1Z" transform="translate(14.557 16.769)" fill="#f3bc1a"/>
    <path id="Trazado_401" data-name="Trazado 401" d="M36.577,24.289A12.289,12.289,0,1,1,24.289,12,12.289,12.289,0,0,1,36.577,24.289Zm-20.518,0a8.229,8.229,0,1,0,8.229-8.229A8.23,8.23,0,0,0,16.059,24.289Z" transform="translate(11.413 11.529)" fill="#f3bc1a" fill-rule="evenodd"/>
  </g>
</svg>
