<svg xmlns="http://www.w3.org/2000/svg" width="62.009" height="60.779" viewBox="0 0 62.009 60.779">
  <path id="travel-svgrepo-com" d="M43.974,63.448l-9.3-1.826c.134-1.033.233-2.03.287-2.985l6.376-4.281a80.8,80.8,0,0,1,2.637,9.093ZM36.337,44.021l-3.145,2.111a23.448,23.448,0,0,1,.792,2.315L39.353,49.5a40.554,40.554,0,0,0-2.9-5.24q-.063-.118-.119-.239Zm4.7,9.505q-.579-1.553-1.249-3.07l-5.573-1.095a30.539,30.539,0,0,1,.8,8.209l6.025-4.045Zm-16.044-14.5a2.612,2.612,0,0,0-.171.91,2.652,2.652,0,0,0,1.435,2.349,3.332,3.332,0,0,0-.153.949,3.384,3.384,0,0,0,6.45,1.438c.1.215.21.429.31.658l3.118-2.1q-.071-.161-.146-.32a11.031,11.031,0,0,1-.509-1.23,2.652,2.652,0,1,0-.578-4.165c.287-3.883,2.865-7.369,6.878-9.327a11.709,11.709,0,0,1,11.188.5,11.707,11.707,0,0,0-20.728,3.443,8.21,8.21,0,0,1,2.341-6.058A11.7,11.7,0,0,1,46.25,22.9a11.713,11.713,0,0,0-19.176,8.413,9.187,9.187,0,0,0-16.816,5.7,9.187,9.187,0,0,1,16.257-2.115A11.7,11.7,0,0,0,11.008,49.142,11.69,11.69,0,0,1,24.991,39.023ZM48.385,71l4.313-.848c-.063-.48-.109-.942-.134-1.384l-2.958-1.986A37.688,37.688,0,0,0,48.385,71Zm5-8.036-1.46-.98c-.027.054-.046.095-.056.11a18.84,18.84,0,0,0-1.345,2.432l2.489-.491A10.626,10.626,0,0,1,53.388,62.965Zm-3.063,2.01c-.206.467-.4.945-.578,1.426l2.794,1.874a14.045,14.045,0,0,1,.371-3.81l-2.587.51Zm-3-12.784a5.44,5.44,0,0,1,5.486,1.476A3.8,3.8,0,0,1,53.9,56.473a5.434,5.434,0,0,0-9.62-1.6,5.439,5.439,0,0,1,5.194-.233,5.358,5.358,0,0,1,3.19,4.327A1.237,1.237,0,1,0,52.39,60.9a4.939,4.939,0,0,1-.235.571q-.031.076-.068.149l1.449.971c.046-.1.095-.2.143-.3A1.565,1.565,0,0,0,56.6,61.184a1.226,1.226,0,0,0,.667-1.088,1.2,1.2,0,0,0-.08-.423,5.428,5.428,0,0,1,6.488,4.694,5.43,5.43,0,0,0-7.2-6.609,4.258,4.258,0,0,1,7.54.978,4.264,4.264,0,0,0-7.8-2.642,5.43,5.43,0,0,0-8.89-3.9Zm6.757,23.465a27.489,27.489,0,0,1-1.335-5.108l-4.46.878c-.1.454-.191.89-.273,1.314l4.25,2.855-.739-.02-3.59-2.413c-.161.886-.28,1.674-.37,2.341-.51-.008-1.029-.008-1.544-.01q-.415-3.709-1.087-7.383l-11.319,7.6c-.561.025-1.106.052-1.648.08L44.763,67.2q-.271-1.423-.582-2.837l-9.619-1.889A61.64,61.64,0,0,1,30.8,75.854c-8.294.475-13.893,1.362-13.893,2.379,0,1.517,12.389,2.749,27.67,2.749s27.669-1.231,27.669-2.749c0-1.187-7.572-2.2-18.163-2.578Z" transform="translate(-10.237 -20.202)" fill="#f3b90e"/>
</svg>
