<?xml version="1.0" encoding="utf-8"?>
<!-- Generator: Adobe Illustrator 27.6.1, SVG Export Plug-In . SVG Version: 6.00 Build 0)  -->
<svg version="1.1" id="Layer_1" xmlns="http://www.w3.org/2000/svg" xmlns:xlink="http://www.w3.org/1999/xlink" x="0px" y="0px"
	 viewBox="0 0 112 96" style="enable-background:new 0 0 112 96;" xml:space="preserve">
<style type="text/css">
	.st0{fill:url(#SVGID_1_);filter:url(#Adobe_OpacityMaskFilter);}
	.st1{mask:url(#mask0_00000093142968569451568180000013331049420331616137_);}
	.st2{opacity:0.1;}
	.st3{fill:none;stroke:#111827;stroke-width:2;}
	.st4{opacity:0.2;}
	.st5{fill:#1A237E;}
	.st6{fill:#F9A51C;}
	.st7{opacity:0.2;fill:#1A237E;}
	.st8{fill:#FFA000;}
	.st9{fill:#FF8F00;}
	.st10{fill:#F2B90E;}
	.st11{fill:#FFFFFF;}
	.st12{fill:#C18E0C;}
	.st13{fill:#DBDBDB;}
	.st14{fill:#353535;}
	.st15{fill:#D89E0E;}
	.st16{fill:#010205;}
	.st17{fill:#00B8D4;}
	.st18{opacity:0.5;fill:#CFD8DC;}
	.st19{opacity:0.5;fill:#A5A5A5;}
	.st20{opacity:0.25;fill:#311B92;}
	.st21{opacity:0.1;fill:#311B92;}
	.st22{fill:#B2B2B2;}
	.st23{fill:#EFEFEF;}
	.st24{fill:#FF3E00;}
	.st25{opacity:0.3;}
	.st26{opacity:0.25;fill:#FFFFFF;}
</style>
<defs>
	<filter id="Adobe_OpacityMaskFilter" filterUnits="userSpaceOnUse" x="2" y="0" width="98" height="98">
		<feColorMatrix  type="matrix" values="1 0 0 0 0  0 1 0 0 0  0 0 1 0 0  0 0 0 1 0"/>
	</filter>
</defs>
<mask maskUnits="userSpaceOnUse" x="2" y="0" width="98" height="98" id="mask0_00000093142968569451568180000013331049420331616137_">
	
		<radialGradient id="SVGID_1_" cx="-369.4493" cy="486.074" r="1" gradientTransform="matrix(4.225032e-15 69 72.9204 -4.465087e-15 -35393.7148 25540)" gradientUnits="userSpaceOnUse">
		<stop  offset="0.2319" style="stop-color:#C4C4C4"/>
		<stop  offset="0.7246" style="stop-color:#C4C4C4;stop-opacity:0"/>
	</radialGradient>
	<rect x="-1" y="4" class="st0" width="104" height="88"/>
</mask>
<g class="st1">
	<g class="st2">
		<circle class="st3" cx="51" cy="49" r="40"/>
	</g>
	<g class="st2">
		<circle class="st3" cx="51" cy="49" r="48"/>
	</g>
	<g class="st2">
		<circle class="st3" cx="51" cy="49" r="32"/>
	</g>
	<g class="st2">
		<circle class="st3" cx="51" cy="49" r="24"/>
	</g>
	<g class="st2">
		<circle class="st3" cx="51" cy="49" r="16"/>
	</g>
</g>
<g>
	<g id="XMLID_00000133520184768637012520000016804967704735155380_" class="st4">
		<polygon id="XMLID_00000038387454166374957510000010436859935120095389_" class="st5" points="54.8,77.1 48,70.3 41.3,77.1 		"/>
	</g>
	<g id="XMLID_00000078742977195442099790000015746335252807750299_">
		<polygon id="XMLID_00000122686014674352487540000011612970817683842714_" class="st6" points="54.2,76.5 47.4,69.8 40.7,76.5 		
			"/>
	</g>
	<path id="XMLID_00000013158938140418395840000011631585743853140112_" class="st7" d="M75,83H34.9c-2.1,0-3.8-1.7-3.8-3.8V25.9
		c0-2.1,1.7-3.8,3.8-3.8H75c2.1,0,3.8,1.7,3.8,3.8v53.2C78.8,81.3,77.1,83,75,83z"/>
	<path id="XMLID_00000046320165966304749840000008865404171005979829_" class="st8" d="M73.8,81.8H33.7c-2.1,0-3.8-1.7-3.8-3.8V24.8
		c0-2.1,1.7-3.8,3.8-3.8h40.1c2.1,0,3.8,1.7,3.8,3.8V78C77.6,80.1,75.9,81.8,73.8,81.8z"/>
	<path id="XMLID_00000172399273484562862110000013273014035816228240_" class="st9" d="M37,81.8h-4.8c-1.3,0-2.4-1.1-2.4-2.4V23.3
		c0-1.3,1.1-2.4,2.4-2.4H37c-1.3,0-2.4,1.1-2.4,2.4v56.1C34.7,80.7,35.7,81.8,37,81.8z"/>
	<path id="XMLID_00000049187692772074271210000001339457602774106002_" class="st9" d="M70.5,81.8h4.8c1.3,0,2.4-1.1,2.4-2.4V23.3
		c0-1.3-1.1-2.4-2.4-2.4h-4.8c1.3,0,2.4,1.1,2.4,2.4v56.1C72.8,80.7,71.8,81.8,70.5,81.8z"/>
	<path id="XMLID_00000039823988165342400580000001997692806896238223_" class="st10" d="M73.8,79.4H33.7c-2.1,0-3.8-1.7-3.8-3.8
		V22.4c0-2.1,1.7-3.8,3.8-3.8h40.1c2.1,0,3.8,1.7,3.8,3.8v53.2C77.6,77.7,75.9,79.4,73.8,79.4z"/>
	<g id="XMLID_00000107550902451934907240000003940835043820038078_">
		<polygon id="XMLID_00000107572532992325332070000002004952361758082214_" class="st11" points="72.8,20.9 72.8,77 44.2,77 
			34.7,67.5 34.7,20.9 		"/>
		<polyline id="XMLID_00000060014044590389830820000010876991151498864017_" class="st12" points="34.7,67.5 44.2,67.5 44.2,77 		
			"/>
	</g>
	<rect id="XMLID_00000072994821742670825030000003594287758609146761_" x="40.6" y="32.9" class="st13" width="4.8" height="4.8"/>
	<rect id="XMLID_00000050645154387917284650000004264937309135498114_" x="40.6" y="42.4" class="st13" width="4.8" height="4.8"/>
	<rect id="XMLID_00000013163135474231993030000012462115936097510576_" x="40.6" y="52" class="st13" width="4.8" height="4.8"/>
	<rect id="XMLID_00000057859597646030084680000011757990184009407929_" x="40.6" y="61.5" class="st13" width="4.8" height="4.8"/>
	<rect id="XMLID_00000158708853606025053800000012475796773867957123_" x="50.2" y="32.9" class="st14" width="17.9" height="1.2"/>
	<rect id="XMLID_00000155147342164374549600000017512629386760382884_" x="50.2" y="36.4" class="st14" width="15.5" height="1.2"/>
	<rect id="XMLID_00000060014922634778392370000017279103171387570844_" x="50.2" y="42.4" class="st14" width="17.9" height="1.2"/>
	<rect id="XMLID_00000093176201697118848820000017735145145165490330_" x="50.2" y="46" class="st14" width="15.5" height="1.2"/>
	<rect id="XMLID_00000128456559969332591200000006752772175297329855_" x="50.2" y="52" class="st14" width="17.9" height="1.2"/>
	<rect id="XMLID_00000072259773241982450820000006433309103506794683_" x="50.2" y="55.5" class="st14" width="15.5" height="1.2"/>
	<rect id="XMLID_00000096057801387215922790000011644687591246590851_" x="50.2" y="61.5" class="st14" width="17.9" height="1.2"/>
	<rect id="XMLID_00000038378279333984267580000000272202643298263981_" x="50.2" y="65.1" class="st14" width="15.5" height="1.2"/>
	<g id="XMLID_00000102532918482986501650000010712274281985856431_">
		<polygon id="XMLID_00000163776367237033447890000017400882709529363361_" class="st14" points="46.6,33.3 43.4,36.5 42.6,35.7 
			41.8,34.9 42.4,34.3 43.4,35.1 46.2,32.9 		"/>
	</g>
	<g id="XMLID_00000039093516311884659360000008892336333416177292_">
		<polygon id="XMLID_00000152964222687945098270000001217289420360766910_" class="st14" points="46.6,42.8 43.4,46 42.6,45.2 
			41.8,44.4 42.4,43.8 43.4,44.6 46.2,42.4 		"/>
	</g>
	<g id="XMLID_00000029029954561122941050000018347154488513471642_">
		<polygon id="XMLID_00000116928951642988855590000016979141129636596668_" class="st14" points="46.6,61.9 43.4,65.1 42.6,64.3 
			41.8,63.5 42.4,62.9 43.4,63.7 46.2,61.5 		"/>
	</g>
	<path id="XMLID_00000050639292892062063730000002326496587887160706_" class="st15" d="M34.7,79.4h-2.4c-1.3,0-2.4-1.1-2.4-2.4
		V20.9c0-1.3,1.1-2.4,2.4-2.4h2.4c-1.3,0-2.4,1.1-2.4,2.4V77C32.3,78.3,33.3,79.4,34.7,79.4z"/>
	<path id="XMLID_00000124880385542123232310000002061119450224375207_" class="st10" d="M72.8,79.4h2.4c1.3,0,2.4-1.1,2.4-2.4V20.9
		c0-1.3-1.1-2.4-2.4-2.4h-2.4c1.3,0,2.4,1.1,2.4,2.4V77C75.2,78.3,74.2,79.4,72.8,79.4z"/>
	<g id="XMLID_00000070095871975526648710000003996052987321785483_" class="st4">
		<path id="XMLID_00000158029375659938837230000000979854576105619878_" class="st5" d="M39.4,52.7c-0.2,0-0.3-0.1-0.4-0.2l-1.7-1.7
			c-0.2-0.2-0.2-0.6,0-0.8c0.2-0.2,0.6-0.2,0.8,0l1.7,1.7c0.2,0.2,0.2,0.6,0,0.8C39.7,52.7,39.5,52.7,39.4,52.7z"/>
		<path id="XMLID_00000049900667549254019930000002619799780050510213_" class="st5" d="M36.8,47.9l1.7,1.7c0.5,0.5,0.5,1.2,0,1.7
			c-0.5,0.5-1.2,0.5-1.7,0l-1.7-1.7L36.8,47.9z"/>
		<path id="XMLID_00000107570120986036629150000014304884001140702369_" class="st5" d="M25.9,35.2l11.8,11.8c0.9,0.9,0.9,2.4,0,3.4
			c-0.9,0.9-2.4,0.9-3.4,0L22.5,38.6v-3.4H25.9z"/>
		<path id="XMLID_00000081643131177744138840000001071736088888510618_" class="st5" d="M20.8,30.2l5.1,5.1l-3.4,3.4l-5.1-5.1
			c-0.9-0.9-0.9-2.4,0-3.4C18.4,29.3,19.9,29.3,20.8,30.2z"/>
		
			<rect id="XMLID_00000085936900585719818730000007871156773781195401_" x="19.8" y="32.6" transform="matrix(0.7071 -0.7071 0.7071 0.7071 -20.446 25.3569)" class="st5" width="1.2" height="9.5"/>
	</g>
	<g id="XMLID_00000049940511983026698180000015337618414723372206_">
		<path id="XMLID_00000140719977168536321030000010853918400821038220_" class="st16" d="M39.4,51.5c-0.2,0-0.3-0.1-0.4-0.2
			l-1.7-1.7c-0.2-0.2-0.2-0.6,0-0.8c0.2-0.2,0.6-0.2,0.8,0l1.7,1.7c0.2,0.2,0.2,0.6,0,0.8C39.7,51.5,39.5,51.5,39.4,51.5z"/>
		<path id="XMLID_00000135687334388901749170000015148978065431220402_" class="st17" d="M36.8,46.7l1.7,1.7c0.5,0.5,0.5,1.2,0,1.7
			c-0.5,0.5-1.2,0.5-1.7,0l-1.7-1.7L36.8,46.7z"/>
		<path id="XMLID_00000035493864587735629310000011358570121400611210_" class="st13" d="M25.9,34.1l11.8,11.8
			c0.9,0.9,0.9,2.4,0,3.4c-0.9,0.9-2.4,0.9-3.4,0L22.5,37.4v-3.4H25.9z"/>
		<path id="XMLID_00000103234246611936613420000007852793584082601104_" class="st10" d="M20.8,29l5.1,5.1l-3.4,3.4l-5.1-5.1
			c-0.9-0.9-0.9-2.4,0-3.4C18.4,28.1,19.9,28.1,20.8,29z"/>
		
			<rect id="XMLID_00000169532280722693895100000017425810480378549405_" x="19.8" y="31.4" transform="matrix(0.7071 -0.7071 0.7071 0.7071 -19.6023 25.0074)" class="st10" width="1.2" height="9.5"/>
	</g>
	<path id="XMLID_00000103225624880431749600000010470321660878895277_" class="st18" d="M18.5,28.4c-0.2,0.8,0,1.7,0.6,2.3l5.1,5.1
		l-1.7,1.7l-5.1-5.1c-0.9-0.9-0.9-2.4,0-3.4c0,0,0.1-0.1,0.1-0.1c0.1-0.1,0.3-0.2,0.4-0.3c0,0,0.1,0,0.1-0.1c0,0,0,0,0,0
		c0.1,0,0.2-0.1,0.3-0.1C18.4,28.4,18.5,28.4,18.5,28.4z"/>
	<path id="XMLID_00000013884187031088539860000015005560293226718624_" class="st19" d="M38.3,48.2l0.2,0.2c0.3,0.3,0.4,0.8,0.3,1.2
		c-0.1,0.2-0.2,0.4-0.3,0.5c-0.2,0.2-0.3,0.3-0.5,0.3c-0.4,0.1-0.8,0-1.2-0.3l-0.2-0.2c-0.8,0.2-1.7,0-2.3-0.6L22.5,37.4l1.7-1.7
		L36,47.6C36.6,48.2,37.5,48.4,38.3,48.2z"/>
	<path id="XMLID_00000144319825112865912660000012428016038967755169_" class="st20" d="M63.5,16.4v6H44.4v-6h2.4
		c1.3,0,2.4-1.1,2.4-2.4c0-2.6,2.1-4.8,4.8-4.8c2.6,0,4.8,2.1,4.8,4.8c0,1.3,1.1,2.4,2.4,2.4H63.5z"/>
	<path id="XMLID_00000031202281617348117380000008064553978654919853_" class="st13" d="M58.5,17.4H49l-2.4-1.2
		c1.3,0,2.4-1.1,2.4-2.4c0-2.6,2.1-4.8,4.8-4.8c2.6,0,4.8,2.1,4.8,4.8c0,1.3,1.1,2.4,2.4,2.4L58.5,17.4z"/>
	<polygon id="XMLID_00000129921843670843428910000003387328858450819231_" class="st10" points="44.2,16.2 63.3,16.2 63.3,20.9 
		53.7,22.1 44.2,20.9 	"/>
	<rect id="XMLID_00000007408870220335858000000013759781569830845331_" x="44.2" y="20.9" class="st13" width="19.1" height="1.2"/>
	<circle id="XMLID_00000027576317930524584540000009717558001001590202_" class="st11" cx="54" cy="12.8" r="1.2"/>
	<rect id="XMLID_00000005243396677154345430000010867113159498552468_" x="44.2" y="16.2" class="st21" width="1.2" height="4.8"/>
	<g id="XMLID_00000102542901168295513520000012561529315377079705_">
		<path id="XMLID_00000029039538203138855430000013324205805609709753_" class="st22" d="M53.2,9c2.4,0.3,4.2,2.3,4.2,4.7
			c0,1.3,1.1,2.4,2.4,2.4h1.2c-1.3,0-2.4-1.1-2.4-2.4c0-2.6-2.1-4.8-4.8-4.8C53.5,9,53.3,9,53.2,9z"/>
	</g>
</g>
<g>
	<circle class="st23" cx="88.9" cy="24.4" r="23.2"/>
	<path class="st11" d="M66.3,27.3c0-12.5,10.1-22.6,22.6-22.6c12.5,0,22.6,10.1,22.6,22.6c0,1.3-0.1,2.5-0.3,3.7
		c0.6-2.1,1-4.3,1-6.6c0-12.8-10.4-23.2-23.2-23.2c-12.8,0-23.2,10.4-23.2,23.2c0,2.3,0.3,4.5,1,6.6C66.4,29.8,66.3,28.6,66.3,27.3z
		"/>
	<g>
		<g>
			<path class="st24" d="M97.7,35.9H80.2c-1.2,0-2.2-1-2.2-2.2v-2.9c0-0.5,0.4-0.8,0.8-0.8h1c0.5,0,0.8,0.4,0.8,0.8v1.9
				c0,0.3,0.3,0.6,0.6,0.6h15.3c0.3,0,0.6-0.3,0.6-0.6v-1.9c0-0.5,0.4-0.8,0.8-0.8h1c0.5,0,0.8,0.4,0.8,0.8v2.9
				C99.9,34.8,98.9,35.9,97.7,35.9z"/>
		</g>
		<g class="st25">
			<path class="st26" d="M99.9,31.7v-1c0-0.5-0.4-0.8-0.8-0.8h-1c-0.5,0-0.8,0.4-0.8,0.8v1H99.9z"/>
			<path class="st26" d="M80.6,31.7v-1c0-0.5-0.4-0.8-0.8-0.8h-1c-0.5,0-0.8,0.4-0.8,0.8v1H80.6z"/>
		</g>
	</g>
	<g>
		<path class="st24" d="M94.2,20.3v-6.1c0-0.5-0.4-0.9-0.9-0.9h-8.7c-0.5,0-0.9,0.4-0.9,0.9v6.1c0,0.3-0.2,0.5-0.5,0.5h-2
			c-0.8,0-1.2,0.9-0.7,1.5l7.7,9.2c0.4,0.4,1,0.4,1.4,0l7.7-9.2c0.5-0.6,0.1-1.5-0.7-1.5h-2C94.4,20.8,94.2,20.6,94.2,20.3z"/>
		<path class="st26" d="M94.2,16.3v-2c0-0.5-0.4-0.9-0.9-0.9h-8.7c-0.5,0-0.9,0.4-0.9,0.9v2H94.2z"/>
	</g>
</g>
</svg>
