<?xml version="1.0" encoding="UTF-8"?><svg id="Layer_2" xmlns="http://www.w3.org/2000/svg" viewBox="0 0 106.8 106.3"><defs><style>.cls-1{fill:#f4b90f;}.cls-2{fill:#bcbdc1;}.cls-3{fill:#828384;}</style></defs><g id="Logo"><g id="Layer_1-2"><circle class="cls-2" cx="91" cy="19.4" r="11.2"/><circle class="cls-2" cx="21.8" cy="70.3" r="21.8"/><circle class="cls-2" cx="38.6" cy="8.8" r="8.8"/><circle class="cls-2" cx="88.2" cy="68.7" r="18.6"/><path class="cls-1" d="m87.1,47.5c.8,0,1.6.1,2.4.2.9-2.7,1.5-5.6,1.5-8.6,0-14.8-12-26.8-26.8-26.8s-26.8,11.9-26.8,26.7,12,26.8,26.8,26.8c.8,0,1.6-.1,2.5-.1,1.2-10.2,10-18.2,20.4-18.2Z"/><path class="cls-1" d="m87.1,47.5c.8,0,1.6.1,2.4.2.9-2.7,1.5-5.6,1.5-8.6,0-14.8-12-26.8-26.8-26.8s-26.8,11.9-26.8,26.7,12,26.8,26.8,26.8c.8,0,1.6-.1,2.5-.1,1.2-10.2,10-18.2,20.4-18.2Z"/><path class="cls-3" d="m65.8,106.2h-.2.2c-.1-.1,0,0,0,0Z"/></g></g></svg>