<?xml version="1.0" encoding="utf-8"?>
<!-- Generator: Adobe Illustrator 27.3.1, SVG Export Plug-In . SVG Version: 6.00 Build 0)  -->
<svg version="1.1" id="Logo" xmlns="http://www.w3.org/2000/svg" xmlns:xlink="http://www.w3.org/1999/xlink" x="0px" y="0px"
	 viewBox="0 0 180 183.2" style="enable-background:new 0 0 180 183.2;" xml:space="preserve">
<style type="text/css">
	.st0{fill:#BCBDC1;}
	.st1{fill:#F4B90F;}
	.st2{fill:#5C5E5F;}
	.st3{fill:#5E6061;}
	.st4{fill:#828384;}
</style>
<g id="Layer_1-2">
	<circle class="st0" cx="123.1" cy="28" r="11.2"/>
	<circle class="st0" cx="53.9" cy="78.9" r="21.8"/>
	<circle class="st0" cx="70.7" cy="17.4" r="8.8"/>
	<circle class="st0" cx="120.3" cy="77.3" r="18.6"/>
	<path class="st1" d="M119.2,56.1c0.8,0,1.6,0.1,2.4,0.2c0.9-2.7,1.5-5.6,1.5-8.6c0-14.8-12-26.8-26.8-26.8S69.5,32.8,69.5,47.6
		s12,26.8,26.8,26.8c0.8,0,1.6-0.1,2.5-0.1C100,64.1,108.8,56.1,119.2,56.1z"/>
	<path class="st1" d="M119.2,56.1c0.8,0,1.6,0.1,2.4,0.2c0.9-2.7,1.5-5.6,1.5-8.6c0-14.8-12-26.8-26.8-26.8S69.5,32.8,69.5,47.6
		s12,26.8,26.8,26.8c0.8,0,1.6-0.1,2.5-0.1C100,64.1,108.8,56.1,119.2,56.1z"/>
	<path class="st2" d="M89,136.7c-1.3,0-2.6,0-3.9,0c-0.4,0-0.5-0.3-0.7-0.5c-1.2-2-2.3-4.1-3.5-6.1c-0.3-0.4-0.5-0.6-1-0.6
		c-1.6,0-3.3,0-4.9,0c-0.5,0-0.7,0.2-0.7,0.7c0,1.9,0,3.9,0,6c0,0.6-0.2,0.8-0.7,0.8c-0.8-0.1-1.7,0-2.4,0c-0.4,0-0.5-0.2-0.5-0.5
		c0-7,0-13.8,0-20.8c0-0.4,0.1-0.6,0.6-0.6c3.5,0,7.1,0,10.6,0c3.3,0.1,6.2,2.4,6.8,5.5c0.6,3.2-0.1,6.1-3.7,8.1
		c-0.5,0.3-0.5,0.4-0.3,0.9c1.3,2.1,2.4,4.3,3.7,6.4C88.7,136.1,88.9,136.4,89,136.7L89,136.7z M78.5,125.7
		C78.5,125.7,78.5,125.8,78.5,125.7c1,0,2.1,0,3.1,0c2.1,0,3.7-1.6,3.7-3.5c0-2.1-1.5-3.7-3.7-3.7c-2.2,0-4.4,0-6.6,0
		c-0.4,0-0.6,0.1-0.6,0.6c0,2,0,4.1,0,6.1c0,0.4,0.1,0.5,0.5,0.5C76.1,125.7,77.3,125.7,78.5,125.7L78.5,125.7z"/>
	<path class="st2" d="M24.5,125.8c0-3.4,0-6.8,0-10.1c0-0.6,0.2-0.8,0.8-0.8c3.4,0,6.9,0,10.3,0c3.9,0,7.2,3.4,7.2,7.3
		c0,4.4-3.5,7.4-7.4,7.3c-2.2,0-4.4,0-6.5,0c-0.5,0-0.7,0.2-0.7,0.7c0,2,0,4,0,6c0,0.5-0.1,0.7-0.6,0.7c-0.8,0-1.6-0.1-2.4,0
		c-0.6,0-0.7-0.2-0.7-0.7C24.5,132.6,24.5,129.2,24.5,125.8L24.5,125.8z M32.1,125.8L32.1,125.8c1.2,0,2.3,0,3.5,0
		c1.8-0.1,3.4-1.7,3.4-3.5c0-1.9-1.4-3.5-3.3-3.6c-2.3-0.1-4.7,0-7.1-0.1c-0.4,0-0.4,0.3-0.4,0.6c0,2,0,4.1,0,6.1
		c0,0.4,0.1,0.6,0.6,0.6C29.8,125.8,31,125.8,32.1,125.8L32.1,125.8z"/>
	<path class="st2" d="M53.7,114.8c3.7,7.4,7.3,14.6,10.9,21.9c-1.3,0-2.6,0-3.9,0c-0.3,0-0.4-0.3-0.5-0.5c-0.4-0.9-0.9-1.8-1.3-2.7
		c-0.2-0.3-0.3-0.5-0.8-0.5c-3,0-6,0-9,0c-0.4,0-0.6,0.2-0.8,0.5c-0.4,0.9-0.9,1.8-1.3,2.7c-0.2,0.3-0.3,0.5-0.6,0.4
		c-1.2,0-2.4,0-3.8,0C46.4,129.4,50,122.2,53.7,114.8L53.7,114.8z M56.8,129.4c-1.1-2.1-2.1-4.2-3.2-6.3c-1,2.1-2,4-2.9,6
		c-0.2,0.4,0.2,0.3,0.4,0.3C53,129.4,54.8,129.4,56.8,129.4z"/>
	<path class="st2" d="M115.4,136.7c3.7-7.3,7.3-14.5,11-21.9c0.6,1.2,1.2,2.3,1.7,3.3c2.7,5.4,5.4,10.7,8,16.1c0.3,0.7,0.7,1.3,1,2
		c0.2,0.3,0.1,0.4-0.3,0.4c-1.1,0-2.2,0-3.3,0c-0.4,0-0.6-0.3-0.7-0.6c-0.3-0.8-0.8-1.7-1.2-2.5c-0.2-0.4-0.4-0.5-0.8-0.5
		c-3,0-6,0-9,0c-0.3,0-0.6,0.1-0.7,0.4c-0.3,1-1,1.8-1.4,2.9c-0.1,0.3-0.2,0.4-0.4,0.4C118,136.7,116.8,136.7,115.4,136.7
		L115.4,136.7z M126.3,123.1c-1,2-1.9,3.9-2.9,5.8c-0.3,0.4,0,0.5,0.3,0.5c1,0,2.1,0,3.1,0c0.8,0,1.7,0,2.6,0
		C128.4,127.3,127.4,125.3,126.3,123.1z"/>
	<path class="st3" d="M97.9,114.8c0.3,0.2,0.3,0.4,0.4,0.7c1.4,2.9,2.9,5.8,4.4,8.7c0.7,1.3,1.4,2.8,2.1,4.1
		c0.3-0.1,0.3-0.3,0.4-0.4c1.9-3.9,3.9-7.7,5.8-11.7c0.5-1.1,1.1-1.4,2.2-1.3c0.7,0.1,1.4,0,2.2,0c0.3,0,0.5,0.2,0.3,0.4
		c-0.6,0.9-0.9,1.9-1.4,2.8c-0.6,1.1-1.2,2.2-1.8,3.3c-0.9,1.7-1.8,3.4-2.6,5.2c-0.8,1.7-1.7,3.4-2.5,5c-0.8,1.5-1.5,3-2.3,4.5
		c-0.1,0.2-0.1,0.4-0.3,0.3c-0.2,0-0.3-0.3-0.3-0.3c-1-2.1-2-4.2-3-6.2c-0.9-1.9-1.9-3.8-2.9-5.7c-0.8-1.5-1.4-3-2.2-4.5
		c-0.8-1.5-1.5-3-2.3-4.5c-0.1-0.1-0.1-0.3-0.1-0.3v-0.1c1.3,0,2.5,0,3.8,0L97.9,114.8L97.9,114.8L97.9,114.8z"/>
	<path class="st2" d="M143.5,136.4c0-6.9,0-13.7,0-20.6c0-0.8,0.2-1,0.9-0.9c0.7,0.1,1.3,0.1,2,0c0.6-0.1,0.8,0.2,0.8,0.8
		c0,4.8,0,9.6,0,14.4c0,0.8,0,1.6,0,2.4c0,0.5,0.2,0.7,0.7,0.7c3.1,0,6.3,0,9.4,0c0.7,0,0.9,0.3,0.8,0.8c-0.1,0.8,0,1.5,0,2.3
		c0,0.3-0.1,0.5-0.5,0.5c-4.7,0-9.4,0-14.1,0C143.6,136.5,143.6,136.5,143.5,136.4L143.5,136.4z"/>
	<path class="st3" d="M120.6,157.9c-2.1,0-3.5-1.3-4-3.5c-0.3-1.5-0.3-3.1,0.3-4.5c0.3-0.9,1.3-1.6,2.3-2c2.7-0.9,5,0.6,5.5,3.3
		c0.3,1.8,0.2,3.5-0.8,5.1c-0.6,1-1.7,1.3-2.8,1.6C121.1,158,120.8,157.9,120.6,157.9L120.6,157.9z M123.2,152.9c0-0.3,0-0.7,0-1
		c0-1.3-0.9-2.6-1.9-2.8c-1.8-0.3-2.6,0.4-3.1,2.1c-0.3,1.3-0.3,2.5,0.1,3.7c0.4,1.2,1.3,1.8,2.3,1.8c1.1,0,1.9-0.8,2.3-1.8
		C123.2,154.2,123.2,153.6,123.2,152.9L123.2,152.9z"/>
	<path class="st3" d="M81.5,152.9c0,0.6-0.1,1.2-0.2,1.7c-0.4,2-1.8,3.3-3.9,3.4c-2.3,0.1-3.7-1.4-4.1-3.3c-0.4-1.6-0.3-3.1,0.3-4.6
		c0.7-1.6,1.9-2.3,3.9-2.3c1.7,0,2.9,0.9,3.5,2.4c0.2,0.3,0.3,0.7,0.3,1C81.4,151.7,81.5,152.3,81.5,152.9z M74.7,152.9
		c0,0.8,0.1,1.6,0.4,2.4c0.4,0.8,1.1,1.3,1.9,1.4c1,0,1.9-0.4,2.3-1.4c0.7-1.6,0.7-3.3,0-4.9c-0.3-0.7-0.8-1.2-1.4-1.3
		c-1.7-0.3-2.8,0.3-3.2,2C74.7,151.7,74.7,152.2,74.7,152.9L74.7,152.9z"/>
	<path class="st3" d="M109.7,157.8c-0.8-0.1-1.3-0.5-1.3-1.4c0-2.7,0-5.3,0-8c0-0.5,0.1-0.6,0.6-0.7c1-0.1,2-0.2,3,0
		c0.8,0.2,1.6,0.6,1.9,1.3c0.4,0.8-0.1,2.4-0.9,3c-0.1,0.1-0.2,0.1-0.3,0.2c0.3,0.3,0.8,0.3,1,0.6c1,0.8,0.9,1.8,0.7,2.9
		c-0.3,1.2-1.2,1.7-2.3,1.8c-0.8,0.2-1.5,0.2-2.3,0.2C110,157.7,109.9,157.7,109.7,157.8L109.7,157.8z M109.9,155c0,0.4,0,0.8,0,1.2
		c0,0.4,0.2,0.5,0.6,0.5c0.6,0,1.2-0.1,1.8-0.3c0.9-0.3,1.3-1,1-2.1c-0.1-0.7-0.8-1.1-1.6-1.1C110.5,153.3,109.9,153.9,109.9,155z
		 M109.9,150.5c0,1.1,0.4,1.6,1.3,1.5c1-0.1,1.6-0.7,1.5-1.7c-0.1-1-0.7-1.3-2.3-1.3c-1.2,0-0.4,0.9-0.6,1.3
		C109.8,150.4,109.9,150.4,109.9,150.5L109.9,150.5z"/>
	<path class="st2" d="M111.2,172.9c0-1.3,0-2.5,0-3.9c0-0.6,0.2-0.7,0.8-0.7c1,0,2,0,3,0c1,0.1,1.9,0.3,2.3,1.3
		c0.3,1,0.3,1.9-0.6,2.7c-0.3,0.3-0.3,0.3,0,0.5c1.1,0.8,1,2,0.7,3c-0.3,0.8-1.2,1.3-2.1,1.3c-1.2,0.1-2.4,0-3.6,0
		c-0.4,0-0.4-0.2-0.4-0.5C111.2,175.5,111.2,174.2,111.2,172.9L111.2,172.9z M114,173.4L114,173.4c-0.3,0-0.7,0-1,0
		c-0.3,0-0.4,0.1-0.4,0.4c-0.3,2.1,0,2.4,2.1,2.3c0.1,0,0.2,0,0.3,0c0.8-0.1,1.2-0.6,1.2-1.3s-0.4-1.2-1.2-1.3
		C114.7,173.4,114.4,173.4,114,173.4L114,173.4z M113.9,172.2c0.3,0,0.7,0,1,0c0.7-0.1,1.2-0.5,1.2-1.1c0.1-0.8-0.3-1.2-1-1.3
		c-0.3-0.1-0.8-0.1-1.1-0.1c-1.3,0-1.3,0-1.3,1.3C112.7,171.7,113.1,172.2,113.9,172.2L113.9,172.2z"/>
	<path class="st2" d="M93.1,148.9c0.7,0,0.8,0.5,1.1,1c-0.6,0.7-0.1,0.8,0.4,1.1c0.3,0.3,0.1,0.8,0.3,1.1v0.1c0,0.9,0.2,1.8-0.3,2.7
		c-0.4,0-0.4,0.2-0.2,0.4c0,0.1,0,0.1,0,0.2c0,0.1,0,0.1,0,0.2s0,0.1-0.1,0.2c-0.1,0-0.1,0.1-0.1,0.1c-1.3,2.1-3.4,2.3-5.6,2.1
		c-1.3-0.1-1.3-0.2-1.3-1.4c0-2.6,0-5.2,0-7.8c0-0.7,0.2-0.8,0.8-0.8c1-0.1,1.9-0.1,2.9,0c0.7,0.1,1.3,0.3,1.8,0.7
		C93.1,148.6,93.1,148.7,93.1,148.9C93.1,148.9,93.1,148.9,93.1,148.9L93.1,148.9L93.1,148.9z M92,149.5L92,149.5
		c-0.1-0.3-0.3-0.3-0.4-0.2c-0.8-0.5-1.6-0.3-2.4-0.3c-0.3,0-0.3,0.3-0.3,0.4c0,2.2,0,4.4,0,6.5c0,0.4,0.2,0.5,0.5,0.5
		c0.9,0,1.8,0,2.6-0.3c0.1,0.1,0.1,0.2,0.2,0.1c0.2-0.1,0.1-0.2,0.1-0.3c0.2-0.2,0.3-0.3,0.4-0.4c0.3,0,0.3-0.3,0.3-0.5
		c0.6-1.4,0.6-2.9,0.2-4.3c0.2,0,0.4-0.1,0.3-0.3c-0.1-0.3-0.3,0.1-0.5,0C92.6,150,92.4,149.6,92,149.5
		C92.1,149.6,92,149.6,92,149.5L92,149.5z"/>
	<path class="st3" d="M126.6,172.8c0-1.3,0-2.5,0-3.8c0-0.5,0.1-0.7,0.6-0.7c1,0,2.1,0,3.1,0c1.1,0,2.2,0.8,2.4,1.7
		c0.3,1.4,0,2.4-1.2,3.1c-0.3,0.2-0.3,0.3-0.2,0.7c0.5,1,1,2,1.6,2.9c0.3,0.6-0.1,0.7-0.4,0.6c-0.3,0-0.6-0.1-0.8-0.1
		s-0.3-0.1-0.4-0.3c-0.5-1.1-0.9-2.3-1.8-3.1c-0.4-0.4-0.8-0.3-1.3-0.3c-0.3,0-0.2,0.3-0.2,0.5c0,0.8,0,1.8,0,2.6
		c0,0.6-0.3,0.6-0.8,0.6s-0.8-0.1-0.7-0.7C126.7,175.4,126.7,174.1,126.6,172.8L126.6,172.8z M128,171c0,0.3,0,0.7,0,1
		c0,0.3,0,0.4,0.3,0.4c0.8,0,1.5,0.1,2.3-0.1c0.6-0.2,0.9-0.6,0.9-1.3s-0.3-1.1-1-1.3c-0.4-0.1-0.8-0.1-1.2-0.1
		C128.4,169.7,128,170.1,128,171L128,171z"/>
	<path class="st3" d="M143.6,155.6c-0.4-0.1-0.5,0.2-0.6,0.5c-0.2,0.4-0.3,0.9-0.3,1.3c-0.1,0.3-0.2,0.4-0.5,0.4
		c-1.1,0.1-1,0.1-0.8-1c0.6-2.3,1.6-4.5,2.2-6.9c0.2-0.6,0.5-1.1,0.6-1.8c0-0.3,0.3-0.3,0.5-0.3c1.1-0.2,1.5,0.2,1.8,1.3
		c0.8,2.9,1.8,5.7,2.8,8.6c-0.4,0-0.9,0.1-1.3,0c-0.6-0.2-0.7-0.8-0.7-1.3c-0.1-0.8-0.3-1-1.1-0.9s-1.5,0-2.3,0
		C143.7,155.6,143.6,155.6,143.6,155.6L143.6,155.6z M145,149.4c-0.5,1.6-0.8,3-1.3,4.4c-0.1,0.3-0.1,0.5,0.3,0.5c0.7,0,1.3,0,1.9,0
		c0.3,0,0.5,0,0.3-0.4C145.9,152.4,145.5,151,145,149.4L145,149.4z"/>
	<path class="st2" d="M47,151.5c0-1.3,0-2.3,0-3.3c0-0.6,0.4-0.4,0.7-0.4s0.8-0.3,0.8,0.4c-0.1,2.3,0.2,4.6-0.2,7
		c-0.3,1.8-1.3,2.6-3.1,2.7c-2.1,0.1-3.3-0.8-3.6-2.6c-0.1-0.5-0.2-1-0.2-1.5c0-1.8,0-3.4,0-5.2c0-0.5,0-0.8,0.7-0.8
		c0.6,0,0.8,0.2,0.8,0.8c0,2-0.1,4,0.1,6c0.2,1.4,0.8,2,2.2,2c0.9,0,1.5-0.5,1.8-1.4C47.2,153.9,47,152.6,47,151.5L47,151.5z"/>
	<path class="st2" d="M134.9,172.8c0-1.3,0-2.5,0-3.9c0-0.4,0.1-0.7,0.6-0.6c1.2,0.1,2.4-0.2,3.6,0.2c1.2,0.3,2,1.3,2.1,2.5
		c0.1,1.1,0.1,2.3,0,3.4c-0.2,2-1.3,2.9-3.1,2.9c-0.8,0-1.8,0-2.6,0c-0.4,0-0.7-0.2-0.6-0.6v-0.1
		C134.9,175.4,134.9,174.1,134.9,172.8L134.9,172.8z M136.2,173c0,0.6,0,1.3,0,1.8c0,1,0.5,1.4,1.5,1.3c1.3-0.1,1.9-0.7,2-1.8
		c0.1-1,0.1-2,0-3c-0.1-1.2-0.7-1.7-1.8-1.6c-0.3,0-0.7,0-1,0c-0.5-0.1-0.7,0.1-0.7,0.6C136.2,171.2,136.2,172.1,136.2,173
		L136.2,173z"/>
	<path class="st2" d="M97.3,147.9c1.5,0,3,0,4.5,0c0.9,0,1,0.1,0.8,1c0,0.1,0,0.2,0,0.2c-1.1,0.2-2.2,0.1-3.3,0.1
		c-0.5,0-0.8,0.1-0.7,0.7c0.1,0.7-0.3,1.6,0.2,2c0.4,0.3,1.3,0.1,1.9,0.1c0.2,0,0.3,0,0.5,0c0.8-0.2,0.6,0.6,0.6,0.8
		c0.1,0.4-0.3,0.3-0.7,0.3c-0.7,0-1.3,0-2,0c-0.4,0-0.6,0.1-0.6,0.5c0,0.8,0,1.5,0,2.3c0,0.4,0.2,0.5,0.5,0.5c1,0,2.1,0,3.1,0
		c0.2,0,0.5-0.1,0.4,0.3c-0.2,0.3,0.3,1-0.5,1c-1.5,0-3,0-4.5,0c-0.5,0-0.5-0.3-0.5-0.7c0-2.7,0-5.3,0-8c0-0.3,0-0.6,0-0.8
		C97.2,148.2,97.3,148,97.3,147.9L97.3,147.9z"/>
	<path class="st2" d="M51.1,152.7c0-1.4,0-2.9,0-4.3c0-0.4,0.1-0.6,0.6-0.6c1.4,0,2.9,0,4.4,0c0.4,0,0.6,0.2,0.6,0.6
		c0,0.4-0.1,0.8-0.6,0.7c-0.8,0-1.8,0-2.6,0c-0.6,0-0.9,0.1-0.8,0.8c0.1,0.5,0,1,0,1.5c0,0.4,0.2,0.5,0.5,0.5c0.8,0,1.4,0,2.2,0
		c0.5,0,0.5,0.3,0.5,0.6s0.1,0.7-0.5,0.7c-0.7-0.1-1.4,0-2.1,0c-0.5,0-0.6,0.2-0.6,0.6c0,0.7,0.1,1.3,0,2c0,0.6,0.2,0.8,0.8,0.8
		c0.9-0.1,1.9,0,2.9,0c0.6,0,0.5,0.3,0.5,0.7c0,0.3,0.1,0.7-0.5,0.6c-1.5,0-3,0-4.5,0c-0.5,0-0.5-0.3-0.5-0.6
		C51.1,155.7,51.1,154.2,51.1,152.7L51.1,152.7z"/>
	<path class="st3" d="M33.5,152.8c0-1.4,0-2.9,0-4.4c0-0.4,0.1-0.6,0.5-0.6c1-0.1,2-0.2,3,0c1.8,0.3,2.6,1.4,2.5,3.4
		c0,1.5-1.1,2.7-2.7,2.9c-0.3,0-0.6,0-0.8,0c-0.8,0-1.1,0.4-1.1,1.2c0,0.6,0,1.2,0,1.8s-0.2,0.7-0.7,0.7c-0.5,0-0.8-0.1-0.8-0.7
		C33.6,155.7,33.5,154.2,33.5,152.8L33.5,152.8z M35,151c0,0.3,0,0.7,0,1c0,0.7,0.3,1,1.1,1c1.3,0,2-0.8,2.1-1.9
		c0-1.3-0.6-2-1.9-2.1c-0.8-0.1-1.2,0.3-1.2,1.1C35,150.4,35,150.6,35,151L35,151z"/>
	<path class="st3" d="M136.6,157.9c-0.8,0-1.7-0.1-2.5-0.3c-0.6-0.2-0.4-0.4-0.3-0.7c0.1-0.3,0.1-0.8,0.8-0.6
		c0.8,0.3,1.7,0.3,2.5,0.1c0.8-0.2,1.3-0.7,1.3-1.3c0-0.7-0.3-1.3-1-1.5c-0.7-0.3-1.3-0.5-1.8-0.8c-0.8-0.3-1.6-1.5-1.7-2.3
		c0-0.9,0.6-2.3,1.4-2.5c1.3-0.3,2.7-0.4,4,0.2c0.6,0.3,0,0.7,0.1,1c0.1,0.3-0.3,0.1-0.5,0.1c-0.8-0.2-1.7-0.3-2.5-0.1
		c-0.4,0.1-0.8,0.3-0.8,0.8c-0.1,0.5-0.1,1,0.4,1.3c0.5,0.4,1.1,0.7,1.7,0.8c0.4,0.1,0.7,0.3,1,0.5c1.6,0.9,1.3,1.8,1.2,3.3
		c-0.1,1-1.3,1.8-2.4,2C137.1,157.7,136.7,157.7,136.6,157.9L136.6,157.9z"/>
	<path class="st3" d="M60.8,157.9c-0.8,0-1.3-0.1-1.9-0.3c-0.5-0.1-0.7-0.3-0.5-0.8c0.2-0.4,0.3-0.7,0.8-0.5
		c0.7,0.3,1.4,0.3,2.1,0.2c0.8-0.1,1.4-0.6,1.5-1.1c0.2-1.2,0-1.6-1-2c-0.6-0.3-1.3-0.5-1.8-0.8c-1.1-0.5-1.6-1.4-1.5-2.6
		c0.1-0.9,0.8-1.8,1.9-2.1c1.1-0.3,2.2-0.1,3.3,0.1c0.5,0.1,0.4,0.4,0.3,0.8c-0.1,0.3-0.2,0.7-0.7,0.4c-0.6-0.3-1.3-0.3-1.9-0.2
		c-0.7,0.1-1.3,0.3-1.4,1.1s0.3,1.2,0.9,1.4c0.7,0.3,1.3,0.6,2,0.9c1.1,0.5,1.6,1.4,1.6,2.6c-0.1,1.3-0.7,2.1-1.8,2.6
		C62,157.9,61.3,157.9,60.8,157.9L60.8,157.9z"/>
	<path class="st3" d="M41.3,177.4c0.8-2.3,1.7-4.5,2.4-6.7c0.2-0.5,0.4-1.1,0.6-1.6c0.2-0.4,0.3-0.7,0.8-0.7c0.5,0,0.7,0.3,0.8,0.7
		c0.9,2.4,1.8,4.9,2.7,7.4c0.1,0.3,0.4,0.8,0,1c-0.5,0.3-1.1,0-1.3-0.6c-0.5-1.5-0.2-1.2-1.7-1.2c-0.2,0-0.4,0-0.6,0
		c-1.2-0.2-2,0.1-2.1,1.4c0,0.3-0.3,0.4-0.6,0.4C42.1,177.4,41.7,177.4,41.3,177.4L41.3,177.4z M45.2,170.6
		c-0.3,0.8-0.5,1.3-0.7,1.9c-0.5,1.4,0,2,1.5,1.9c0.1,0,0.1,0,0.2,0c0.3,0,0.3-0.2,0.3-0.3C46,172.9,45.6,171.8,45.2,170.6
		L45.2,170.6z"/>
	<path class="st3" d="M74.9,171.3c0-0.8,0-1.6,0-2.4c0-0.5,0.2-0.6,0.6-0.5c0.3,0.1,0.8-0.2,0.8,0.5c0,2.7,0,5.4,0,8
		c0,0.3,0.1,0.5-0.3,0.5c-0.3,0-0.8,0.2-1-0.2c-0.1-0.2,0-0.3-0.3-0.2c-1.8,1.1-3.4,0.2-3.6-1.9c-0.1-0.8-0.1-1.5,0-2.3
		c0.3-1.9,2-2.2,3.4-1.6C74.5,171.2,74.6,171.4,74.9,171.3L74.9,171.3z M74.9,174.2c-0.1-0.4-0.1-0.8-0.2-1.2
		c-0.2-0.5-0.4-0.8-1-0.8c-0.6,0-1.1,0.1-1.3,0.7c-0.3,0.9-0.3,1.8,0,2.7c0.3,0.5,0.6,0.8,1.2,0.8c0.6,0,0.9-0.3,1.1-0.8
		C74.9,175,74.9,174.6,74.9,174.2L74.9,174.2z"/>
	<path class="st3" d="M121.9,174.5c0.7-1.3,0.8-2.9,1.4-4.1c0.3-0.5,0.1-1.2,0.4-1.7c0.2-0.3,1.5-0.5,1.7-0.3c0.1,0.2,0.1,0.3,0,0.5
		c-0.8,1.3-0.9,2.7-1.4,4c-0.5,1.3-0.9,2.5-1.3,3.9c-0.1,0.5-0.5,0.5-0.9,0.5s-0.5-0.3-0.7-0.7c-0.7-2-1.3-4-2-6
		c-0.2-0.6-0.3-1.2-0.6-1.7c-0.2-0.3-0.1-0.5,0.3-0.5c0.8-0.1,1.2,0.1,1.3,0.9c0.4,1.7,1,3.3,1.5,4.9
		C121.7,174.3,121.7,174.4,121.9,174.5L121.9,174.5z"/>
	<path class="st3" d="M69.3,174.9c0,0.6,0,1.2,0,1.8c0,0.3,0.2,0.6-0.2,0.7c-0.3,0.1-0.9,0.3-1.1-0.1c-0.3-0.5-0.4-0.2-0.6-0.1
		c-1.3,0.6-2.7,0.2-3.2-0.8c-0.6-1.2,0.1-2.5,1.4-2.7c0.5-0.1,1,0,1.5-0.1c0.3,0,0.8,0.3,0.8-0.3c0.1-0.5-0.1-1-0.6-1.2
		c-0.7-0.3-1.3-0.3-1.8,0.2c-0.6,0.5-0.8-0.2-1-0.3c-0.4-0.3,0.1-0.4,0.3-0.6c0.8-0.7,3-0.7,3.9,0c0.5,0.4,0.7,1,0.7,1.6
		C69.3,173.6,69.3,174.2,69.3,174.9L69.3,174.9z M67.2,174.6c-0.3,0-0.7,0-0.9,0c-0.5,0.1-0.8,0.3-0.8,0.8s0.3,0.8,0.8,0.8
		c0.3,0.1,0.7,0,0.9-0.1c0.7-0.2,0.8-0.8,0.8-1.3C67.9,174.2,67.3,174.7,67.2,174.6L67.2,174.6z"/>
	<path class="st3" d="M106.1,174.9c0,0.6,0,1.2,0,1.8c0,0.8-0.5,1.1-1.3,0.7c-0.2-0.1-0.3-0.3-0.5-0.1c-0.5,0.3-1.2,0.3-1.8,0.3
		c-1-0.1-1.7-0.7-1.8-1.7c-0.1-0.9,0.5-1.8,1.4-2c0.6-0.2,1.2-0.1,1.7-0.1c0.3,0,0.7,0.3,0.8-0.3c0.1-0.5,0-0.9-0.5-1.2
		c-0.7-0.3-1.3-0.3-1.9,0.2c-0.5,0.5-0.8,0.1-1-0.2c-0.3-0.3-0.2-0.6,0.3-0.8c0.8-0.5,2.9-0.6,3.8,0c0.5,0.4,0.8,0.9,0.8,1.5
		C106.1,173.6,106.1,174.2,106.1,174.9L106.1,174.9z M104,174.6c-0.3,0-0.5,0-0.8,0c-0.5,0.1-0.9,0.3-0.9,0.8c0,0.6,0.3,0.8,0.9,0.8
		c0.3,0,0.5,0,0.8,0c0.7-0.2,1-0.6,0.9-1.3C104.7,174.2,104.1,174.8,104,174.6L104,174.6z"/>
	<path class="st2" d="M87.4,175.4c0.1-1.2,0.6-1.7,1.8-1.8c0.4,0,0.9,0,1.3,0c0.3,0,0.7,0.2,0.8-0.3c0.1-0.5,0-0.9-0.5-1.2
		c-0.7-0.3-1.3-0.4-1.9,0.2c-0.6,0.5-0.8-0.2-1-0.3c-0.3-0.3,0.1-0.5,0.3-0.6c0.8-0.6,1.7-0.6,2.6-0.3c1.6,0.3,1.9,0.8,1.9,2.4
		c0,1.1,0,2.2,0,3.2c0,0.3,0.2,0.6-0.2,0.7c-0.3,0.1-0.9,0.2-1,0c-0.3-0.7-0.7-0.2-0.9-0.1c-0.9,0.4-2.3,0.1-2.8-0.8
		c0.2-0.3,0.3-0.5-0.3-0.5c0-0.2,0-0.3-0.1-0.4c0.1,0,0.1-0.1,0.2-0.1L87.4,175.4L87.4,175.4z M90.3,174.5c-0.3,0-0.5,0-0.7,0
		c-0.4,0-0.8,0.2-0.9,0.6c-0.2,0.5,0.1,0.9,0.5,1.2c0.3,0.2,0.7,0,1,0c0.8-0.1,1-0.3,1-1.3C91.2,174.1,90.5,174.8,90.3,174.5
		L90.3,174.5z"/>
	<path class="st3" d="M83.1,174.3c-0.1,0.5,0.1,0.9-0.1,1.4c-0.4,1.3-1.5,1.9-3,1.8c-1.2-0.2-2.1-1.2-2.2-2.4c0-0.8-0.1-1.5,0.2-2.3
		c0.3-1.3,1.4-2,3.1-1.8c1.2,0.2,2,1.3,1.9,2.5C83.1,173.7,83.1,173.9,83.1,174.3L83.1,174.3z M79.1,174.3c0,0.3,0,0.7,0.2,1
		c0.2,0.7,0.8,1.1,1.4,0.9c0.7-0.2,1-0.6,1-1.3c0-0.5,0-1,0-1.6c0-0.7-0.3-1.1-0.8-1.2c-0.8-0.2-1.3,0.1-1.6,0.8
		C79.1,173.3,79.2,173.8,79.1,174.3L79.1,174.3z"/>
	<path class="st2" d="M68.2,153.5c0-1.3,0-2.4,0-3.7c0-0.4-0.2-0.7-0.6-0.6c-0.5,0-1,0-1.6,0c-0.6,0-0.4-0.4-0.4-0.8
		c0-0.3,0.1-0.5,0.5-0.5c1.9,0,3.8,0,5.7,0c0.4,0,0.5,0.2,0.4,0.5c-0.1,0.3,0.3,0.8-0.4,0.8c-0.5,0-0.9,0.1-1.4,0
		c-0.6-0.1-0.8,0.1-0.8,0.8c0,2.4,0,4.8,0,7.2c0,0.5-0.1,0.8-0.7,0.8c-0.5,0-0.8-0.1-0.8-0.7C68.2,155.9,68.2,154.6,68.2,153.5
		L68.2,153.5z"/>
	<path class="st2" d="M127.1,157.3c0-2.9,0-5.8,0-8.6c0-0.7,0.2-0.8,0.8-0.8c0.5,0,0.6,0.2,0.6,0.7c0,2.4,0,4.9,0,7.3
		c0,0.5,0.1,0.7,0.6,0.7c0.9,0,1.8,0,2.7,0c0.6,0,0.6,0.3,0.6,0.7s-0.1,0.7-0.6,0.7c-1.4,0-2.9,0-4.3,0c-0.3,0-0.4,0-0.5-0.3
		C127.2,157.4,127.2,157.4,127.1,157.3L127.1,157.3z"/>
	<path class="st2" d="M50.3,174.8c0-0.6,0-1.3,0-1.8c0-0.4,0.1-0.8-0.5-0.8c-0.3,0-0.3-0.8,0-0.9c0.5-0.1,0.4-0.5,0.4-0.8
		c0-1.3,0.8-2.1,2.2-2c0.4,0,0.5,0.3,0.5,0.6c0,0.3,0,0.6-0.4,0.6c-0.7,0-1.1,0.7-0.8,1.3c0.2,0.4,0.4,0.3,0.7,0.3
		c0.3,0,0.6,0,0.6,0.5s-0.3,0.5-0.6,0.5c-0.6-0.1-0.8,0.3-0.8,0.8c0,1.3,0,2.6,0,3.9c0,0.5-0.2,0.6-0.6,0.6c-0.3,0-0.8,0.1-0.8-0.5
		C50.3,176.1,50.2,175.4,50.3,174.8C50.2,174.8,50.3,174.8,50.3,174.8L50.3,174.8z"/>
	<path class="st2" d="M58.7,172.3c0,1.1,0,2.1,0,3.2c0,0.5,0.2,0.8,0.8,0.8s0.5,0.3,0.5,0.7c0,0.4-0.2,0.5-0.5,0.5
		c-1.3,0-2-0.6-2-1.9c0-2.1,0-4.3,0-6.5c0-0.5,0.2-0.6,0.7-0.6c0.4,0,0.8,0,0.8,0.6C58.7,170.1,58.7,171.2,58.7,172.3L58.7,172.3z"
		/>
	<path class="st2" d="M97.5,172.3c0-1,0-2,0-3.1c0-0.5-0.1-0.8,0.7-0.8c0.7,0,0.7,0.3,0.7,0.8c0,2.1-0.1,4.3,0,6.4
		c0,0.5,0.3,0.7,0.7,0.7c0.6-0.1,0.5,0.3,0.6,0.7c0,0.5-0.3,0.5-0.7,0.5c-1.3,0-1.9-0.6-1.9-1.9C97.5,174.4,97.5,173.3,97.5,172.3
		L97.5,172.3z"/>
	<path class="st2" d="M62.6,174.2c0,0.9,0,1.8,0,2.7c0,0.5-0.3,0.5-0.7,0.5c-0.4,0-0.8,0.1-0.7-0.6c0-1.8,0-3.6,0-5.4
		c0-0.7,0.4-0.5,0.8-0.5c0.4,0,0.7,0,0.6,0.5C62.5,172.3,62.6,173.3,62.6,174.2L62.6,174.2z"/>
	<path class="st2" d="M55.4,174.3c0,0.8,0,1.7,0,2.5c0,0.6-0.3,0.5-0.7,0.5c-0.4,0-0.7,0-0.7-0.5c0-1.8,0-3.5,0-5.2
		c0-0.5,0.3-0.6,0.6-0.5c0.3,0,0.8-0.1,0.8,0.5C55.3,172.5,55.4,173.4,55.4,174.3L55.4,174.3z"/>
	<path class="st2" d="M61.3,169c-0.2-0.7,0.3-0.6,0.8-0.7c0.7-0.1,0.6,0.3,0.7,0.8c0.1,0.7-0.3,0.6-0.8,0.7
		C61.2,169.8,61.2,169.5,61.3,169L61.3,169z"/>
	<path class="st2" d="M54.7,168.4c0.4-0.1,0.7,0,0.7,0.6c0,0.6-0.3,0.7-0.8,0.7c-0.5,0-0.6-0.2-0.6-0.7
		C54,168.4,54.3,168.3,54.7,168.4z"/>
	<path class="st3" d="M94.6,150.9c-0.5-0.2-1-0.4-0.4-1.1C94.4,150.2,94.6,150.5,94.6,150.9z"/>
	<path class="st4" d="M136.6,157.9c0.3-0.3,0.5-0.2,0.8-0.1C137.1,158.1,136.8,158.3,136.6,157.9z"/>
	<path class="st3" d="M87.5,176c0.4,0,0.3,0.3,0.3,0.5C87.6,176.4,87.5,176.2,87.5,176z"/>
	<path class="st3" d="M94.5,155.2c-0.3-0.3-0.3-0.4,0.2-0.4C94.6,155,94.6,155.1,94.5,155.2z"/>
	<path class="st0" d="M97.3,147.9c0,0.2-0.1,0.3-0.1,0.4c-0.2,0-0.3-0.2-0.2-0.3C97.1,147.9,97.2,147.9,97.3,147.9z"/>
	<path class="st4" d="M109.7,157.8c0.1-0.1,0.2-0.1,0.3,0.1c-0.1,0-0.1,0.1-0.2,0.1C109.8,158.1,109.7,158,109.7,157.8z"/>
	<path class="st0" d="M143.5,136.4c0,0.1,0,0.2,0,0.3c-0.1,0-0.3,0-0.3-0.2C143.4,136.5,143.4,136.5,143.5,136.4L143.5,136.4z"/>
	<path class="st3" d="M87.4,175.4l0.2,0.1c-0.1,0-0.1,0.1-0.2,0.1C87.4,175.5,87.4,175.5,87.4,175.4z"/>
	<path class="st0" d="M127.1,157.3L127.1,157.3C127.1,157.4,127,157.4,127.1,157.3C127.1,157.4,127.1,157.4,127.1,157.3z"/>
	<path class="st3" d="M94.3,155.8C94.3,155.7,94.4,155.7,94.3,155.8C94.5,155.8,94.4,155.8,94.3,155.8z"/>
	<path class="st4" d="M143.6,155.6c0.1,0,0.1,0,0.2,0H143.6C143.6,155.7,143.6,155.6,143.6,155.6z"/>
	<path class="st3" d="M94.5,155.5c0-0.1,0-0.1,0-0.2V155.5C94.6,155.5,94.5,155.5,94.5,155.5L94.5,155.5z"/>
	<path class="st3" d="M94.9,152L94.9,152C94.9,152,95,152,94.9,152C95,152,95,152,94.9,152z"/>
	<path class="st0" d="M102.6,149.1c0-0.1,0-0.2,0-0.2C102.7,149,102.8,149,102.6,149.1z"/>
	<path class="st3" d="M93.1,148.9L93.1,148.9L93.1,148.9L93.1,148.9z"/>
	<path class="st4" d="M94.1,114.9L94.1,114.9L94.1,114.9C94,114.9,94,114.9,94.1,114.9z"/>
	<path class="st4" d="M97.9,114.8L97.9,114.8h-0.2H97.9C97.8,114.7,97.9,114.8,97.9,114.8z"/>
	<path class="st3" d="M93.1,150.9c-0.1-0.1-0.1-0.2-0.2-0.3c0.2,0,0.4-0.3,0.5,0C93.6,150.8,93.3,150.9,93.1,150.9L93.1,150.9z"/>
	<path class="st3" d="M92.6,155.7c0.1-0.2,0.3-0.3,0.3-0.5C93,155.5,93,155.7,92.6,155.7z"/>
	<path class="st3" d="M92,149.5c-0.2-0.1-0.3-0.1-0.4-0.2C91.7,149.3,91.9,149.2,92,149.5z"/>
	<path class="st3" d="M91.9,156.2c0.1-0.1,0.2-0.1,0.3-0.2c0,0.1,0,0.3-0.1,0.3C92.1,156.4,92,156.3,91.9,156.2z"/>
	<path class="st3" d="M92.1,149.7c-0.1,0-0.2,0-0.2-0.1C92,149.6,92.1,149.6,92.1,149.7z"/>
</g>
</svg>
