<?xml version="1.0" encoding="UTF-8"?><svg id="Layer_2" xmlns="http://www.w3.org/2000/svg" xmlns:xlink="http://www.w3.org/1999/xlink" viewBox="0 0 550.29 86.96"><defs><style>.cls-1{fill:#fff;}.cls-2{fill:none;filter:url(#drop-shadow-1);}</style><filter id="drop-shadow-1" filterUnits="userSpaceOnUse"><feOffset dx="7" dy="7"/><feGaussianBlur result="blur" stdDeviation="9"/><feFlood flood-color="#000" flood-opacity=".5"/><feComposite in2="blur" operator="in"/><feComposite in="SourceGraphic"/></filter></defs><g id="Layer_1-2"><g class="cls-2"><path class="cls-1" d="m6.47,72.39H0V22.96h6.47v49.43Z"/><path class="cls-1" d="m53.19,22.96v49.43h-6.13l-23.81-37.11v37.11h-6.47V22.96h6.13l23.81,36.97V22.96h6.47Z"/><path class="cls-1" d="m78.04,72.39h-6.41V28.95h-13.71v-5.99h33.84v5.99h-13.72v43.44Z"/><path class="cls-1" d="m102.97,72.39h-6.47V22.96h18.52c4.66,0,8.35,1.25,11.07,3.69,2.72,2.51,4.11,5.99,4.11,10.51,0,3.62-.98,6.54-2.85,8.91-1.74,2.16-4.11,3.69-7.1,4.53l11.49,21.79h-7.45l-10.86-21.09h-10.44v21.09Zm18.38-29.03c1.6-1.39,2.37-3.41,2.37-6.13s-.77-4.8-2.3-6.2c-1.53-1.39-3.83-2.09-6.82-2.09h-11.63v16.57h11.63c2.92,0,5.22-.7,6.75-2.16Z"/><path class="cls-1" d="m139.66,72.39h-6.82l17.96-49.43h5.22l17.96,49.43h-6.82l-4.04-11.56h-19.42l-4.04,11.56Zm5.99-17.27h15.53l-7.8-22.28-7.73,22.28Z"/><path class="cls-1" d="m214.78,22.96v49.43h-6.13l-23.81-37.11v37.11h-6.47V22.96h6.13l23.81,36.97V22.96h6.47Z"/><path class="cls-1" d="m251.61,44.26v5.99h-20.61v16.15h24.09v5.99h-30.56V22.96h30.56v5.99h-24.09v15.32h20.61Z"/><path class="cls-1" d="m277.72,72.39h-6.41V28.95h-13.71v-5.99h33.83v5.99h-13.71v43.44Z"/><path class="cls-1" d="m360.15,38c0,4.53-1.46,8.08-4.32,10.65-2.86,2.65-6.68,3.9-11.49,3.9h-11.49v19.84h-6.48V22.96h17.96c4.87,0,8.7,1.32,11.56,3.9,2.85,2.65,4.25,6.34,4.25,11.14Zm-6.47,0c0-3.13-.84-5.36-2.51-6.82s-4.04-2.23-7.24-2.23h-11.07v17.61h11.07c3.2,0,5.64-.7,7.31-2.16,1.6-1.39,2.44-3.48,2.44-6.41Z"/><path class="cls-1" d="m364.96,72.39h-6.82l17.96-49.43h5.22l17.96,49.43h-6.82l-4.04-11.56h-19.42l-4.04,11.56Zm5.99-17.27h15.52l-7.8-22.28-7.73,22.28Z"/><path class="cls-1" d="m410.14,72.39h-6.48V22.96h18.52c4.66,0,8.35,1.25,11.07,3.69,2.72,2.51,4.11,5.99,4.11,10.51,0,3.62-.97,6.54-2.85,8.91-1.74,2.16-4.11,3.69-7.1,4.53l11.49,21.79h-7.45l-10.86-21.09h-10.44v21.09Zm18.38-29.03c1.6-1.39,2.37-3.41,2.37-6.13s-.77-4.8-2.3-6.2c-1.53-1.39-3.83-2.09-6.82-2.09h-11.63v16.57h11.63c2.92,0,5.22-.7,6.75-2.16Z"/><path class="cls-1" d="m477.39,22.96l-16.15,49.43h-5.15l-16.08-49.43h6.75l11.97,38.08,11.91-38.08h6.75Z"/><path class="cls-1" d="m481.15,72.39h-6.82l17.96-49.43h5.22l17.96,49.43h-6.82l-4.04-11.56h-19.42l-4.04,11.56Zm5.99-17.27h15.52l-7.8-22.28-7.73,22.28Z"/><path class="cls-1" d="m526.34,66.4h23.95v5.99h-30.42V22.96h6.48v43.44Z"/><rect class="cls-1" x="305.53" width="3.2" height="86.96"/></g></g></svg>