<svg id="Grupo_288" data-name="Grupo 288" xmlns="http://www.w3.org/2000/svg" width="236.296" height="65.293" viewBox="0 0 236.296 65.293">
  <g id="Grupo_82" data-name="Grupo 82">
    <path id="Trazado_372" data-name="Trazado 372" d="M111.914,29.4a19.373,19.373,0,0,1,.9,6.216,22.283,22.283,0,0,1-.832,5.341c-.225.821-.816.553-1.208.51a12.9,12.9,0,0,0-8.465,1.959,13.457,13.457,0,0,0-6.366,9.743c-.107.676-.344.864-1.036.854a21.418,21.418,0,0,1-5.545-.564,19.693,19.693,0,0,1-7.4-3.822,18.826,18.826,0,0,1-5.395-7.51,16.72,16.72,0,0,1-1.122-4.45,21.708,21.708,0,0,1-.086-4.214A18.113,18.113,0,0,1,77.8,25.839a18.593,18.593,0,0,1,3.543-4.455A18.4,18.4,0,0,1,90.8,16.789a18.768,18.768,0,0,1,6.388-.011,19.724,19.724,0,0,1,7.88,3.264A19.366,19.366,0,0,1,111.9,29.4Z" transform="translate(-48.31 -7.645)" fill="#f3b90f"/>
    <path id="Trazado_373" data-name="Trazado 373" d="M40.635,94.764a15.586,15.586,0,1,1,.005,0Z" transform="translate(-25.03 -29.472)" fill="#bcbdc0"/>
    <path id="Trazado_374" data-name="Trazado 374" d="M116.848,78.878A13.14,13.14,0,1,1,129.93,92.062,13.087,13.087,0,0,1,116.848,78.878Z" transform="translate(-67.56 -30.431)" fill="#bcbdc0"/>
    <path id="Trazado_375" data-name="Trazado 375" d="M137.623,26.746a19.366,19.366,0,0,0-6.833-9.362,8.434,8.434,0,0,1,1.659-3.623,7.751,7.751,0,0,1,4.772-2.85,7.868,7.868,0,0,1,6.989,2.072,7.635,7.635,0,0,1,2.432,5.008,7.755,7.755,0,0,1-.73,4.284,8.041,8.041,0,0,1-4.069,3.827,9.829,9.829,0,0,1-4.208.65Z" transform="translate(-74.019 -4.988)" fill="#bcbdc0"/>
    <path id="Trazado_376" data-name="Trazado 376" d="M70.683,12.468a6.168,6.168,0,0,1-6.157-6.721,6.239,6.239,0,0,1,12.459.526,6.2,6.2,0,0,1-6.3,6.189Z" transform="translate(-43.317 0.004)" fill="#bcbdc0"/>
  </g>
  <g id="Grupo_176" data-name="Grupo 176" transform="translate(103.22 13.804)">
    <path id="Trazado_368" data-name="Trazado 368" d="M92.481,170.779c-1.41,0-2.7-.012-3.981.006-.323,0-.4-.192-.522-.4-1.211-2.111-2.441-4.21-3.639-6.322a.8.8,0,0,0-.807-.484c-1.639.019-3.279.025-4.912,0-.453-.006-.6.13-.59.59.025,1.987,0,3.968.019,5.956.006.5-.118.708-.658.677-.82-.043-1.639-.025-2.459,0-.391.012-.571-.056-.571-.515q.019-10.349,0-20.7c0-.4.093-.559.528-.559,3.552.019,7.1-.044,10.65.025a7.132,7.132,0,0,1,6.819,5.893c.416,3.13-.323,5.813-3.819,7.812-.379.217-.478.342-.23.758,1.3,2.2,2.552,4.422,3.825,6.632.093.168.186.342.354.646Zm-10.514-10.9h0c1.192,0,2.385.05,3.571-.012a3.579,3.579,0,0,0-.012-7.135c-2.329-.068-4.664-.019-6.993-.043-.391,0-.509.137-.5.515.012,2.062.019,4.117,0,6.179,0,.4.143.5.515.5,1.143-.019,2.285-.006,3.422-.006Z" transform="translate(-28.181 -148.999)" fill="#5d5e60"/>
    <path id="Trazado_369" data-name="Trazado 369" d="M.012,159.867c0-3.378.012-6.75-.012-10.129,0-.6.168-.745.745-.739,3.428.025,6.85-.031,10.278.025a7.279,7.279,0,0,1-.186,14.557c-2.062-.037-4.124-.006-6.179-.006q-.963,0-.963,1c0,1.863-.019,3.726.012,5.583.006.491-.137.646-.627.621-.82-.037-1.639-.043-2.459,0-.509.025-.615-.168-.615-.64.019-3.428.006-6.85.006-10.278ZM7.7,152.713v-.019c-1.168,0-2.335.012-3.5-.006-.379-.006-.522.1-.515.5.019,2.062.012,4.124,0,6.185,0,.36.062.534.484.534,2.335-.025,4.67.025,7.005-.037a3.58,3.58,0,0,0-.043-7.142c-1.143-.05-2.285-.006-3.428-.006Z" transform="translate(0 -148.992)" fill="#5d5e60"/>
    <path id="Trazado_370" data-name="Trazado 370" d="M51.049,170.882c-1.273,0-2.484-.012-3.7.006a.657.657,0,0,1-.658-.466c-.416-.882-.863-1.745-1.285-2.621a.808.808,0,0,0-.845-.534q-4.36.037-8.713,0a.8.8,0,0,0-.857.515c-.429.907-.913,1.782-1.36,2.683a.652.652,0,0,1-.677.422c-.994-.025-1.987-.031-2.981,0-.652.025-.633-.211-.385-.689.826-1.627,1.621-3.273,2.434-4.906q3.866-7.7,7.732-15.414c.112-.23.137-.609.453-.59.23.012.267.366.373.578q5.086,10.144,10.16,20.295c.106.217.193.441.311.714ZM40.231,157.326c-1.025,2.043-1.981,3.968-2.944,5.887-.149.292-.056.41.261.41h5.831c-1.062-2.124-2.068-4.142-3.142-6.291Z" transform="translate(-11.155 -149.102)" fill="#5d5e60"/>
    <path id="Trazado_371" data-name="Trazado 371" d="M156.654,149.19c.3.174.342.435.453.646q5.058,10.1,10.1,20.2.4.807-.478.807c-.894,0-1.789-.025-2.683.012a.733.733,0,0,1-.789-.5c-.4-.876-.869-1.726-1.273-2.6a.718.718,0,0,0-.758-.522c-2.975.025-5.956.019-8.936,0a.746.746,0,0,0-.782.509c-.428.894-.9,1.764-1.348,2.652-.124.248-.224.466-.584.46-1.211-.019-2.428-.006-3.751-.006,3.633-7.266,7.229-14.451,10.824-21.648Zm.081,8.1c-1.031,2.056-1.987,3.974-2.95,5.893-.13.261-.106.416.236.416H159.9l-3.155-6.309Z" transform="translate(-55.268 -149.064)" fill="#5d5e60"/>
    <path id="Trazado_377" data-name="Trazado 377" d="M111.43,149.011c1.348,0,2.559.013,3.77-.006.453-.006.5.342.633.615q3.055,6.074,6.1,12.153c.124.242.248.478.41.795.391-.758.764-1.459,1.118-2.161q2.7-5.384,5.378-10.775a.927.927,0,0,1,1.006-.633,25.422,25.422,0,0,0,2.751,0c.77-.037.515.317.329.7q-2.664,5.319-5.322,10.638-2.515,5.021-5.024,10.036c-.056.106-.118.211-.236.41-3.645-7.272-7.253-14.463-10.911-21.76Z" transform="translate(-42.23 -148.991)" fill="#5d5e60"/>
    <path id="Trazado_378" data-name="Trazado 378" d="M190.948,159.913c0-3.372.012-6.75-.012-10.123,0-.6.112-.851.758-.795a13.872,13.872,0,0,0,2.155,0c.6-.043.739.168.733.745q-.028,8.188-.012,16.376c0,1.18-.161,1.018,1.025,1.025,3.049.006,6.1.019,9.154-.012.571,0,.72.161.683.708a17.8,17.8,0,0,0,0,2.23c.031.528-.087.72-.677.714q-6.586-.037-13.172,0c-.534,0-.658-.155-.652-.671.025-3.4.012-6.8.012-10.2Z" transform="translate(-72.36 -148.988)" fill="#5d5e60"/>
    <path id="Trazado_379" data-name="Trazado 379" d="M139.129,206.477c1.435.578,1.882,1.248,1.807,2.639a2.433,2.433,0,0,1-2.037,2.54,10.229,10.229,0,0,1-3.838.112c-.317-.031-.342-.224-.342-.46v-9c0-.174,0-.385.242-.385a16.322,16.322,0,0,1,3.018-.081c1.019.2,1.95.528,2.3,1.621a2.574,2.574,0,0,1-1.137,3.018Zm-3.012,2.478c0,1.975.2,2.124,2.105,1.6,1.025-.286,1.379-.907,1.2-2.124a1.535,1.535,0,0,0-1.677-1.149A1.487,1.487,0,0,0,136.117,208.955Zm0-4.521v.373c0,1.223,0,1.217,1.242,1.167a1.527,1.527,0,0,0,1.354-2.4,2.34,2.34,0,0,0-2.4-.571c-.478.255-.106.807-.2,1.211a.9.9,0,0,0,0,.224Z" transform="translate(-51.057 -168.991)" fill="#5d5e60"/>
    <path id="Trazado_380" data-name="Trazado 380" d="M86.323,206.79c-.056,1.82-.342,3.552-2.087,4.6-1.646.987-4.658.745-5.626-1.627a7.439,7.439,0,0,1-.025-5.825,3.91,3.91,0,0,1,5-1.962c1.981.64,2.534,2.3,2.739,4.148a6.04,6.04,0,0,1,0,.671Zm-6.688.217a8.726,8.726,0,0,0,.012,1.124,3.575,3.575,0,0,0,.273.838,2.421,2.421,0,0,0,2.174,1.733,2.385,2.385,0,0,0,2.422-1.807,7.807,7.807,0,0,0,.019-4.124,1.634,1.634,0,0,0-.137-.341,2.167,2.167,0,0,0-1.956-1.335,2.258,2.258,0,0,0-2.41,1.335,4.909,4.909,0,0,0-.391,2.59Z" transform="translate(-29.562 -168.981)" fill="#606163"/>
    <path id="Trazado_381" data-name="Trazado 381" d="M100.872,206.817v-4.322c0-.224-.093-.515.317-.534a11.459,11.459,0,0,1,4.4.273,4.353,4.353,0,0,1,2.714,3.676,8.205,8.205,0,0,1-.093,2.534c-.435,2.292-2.1,3.285-4.347,3.465a23.346,23.346,0,0,1-2.378.012c-.428-.012-.633-.242-.627-.708.025-1.466.006-2.931.006-4.4Zm1.428.05v2.608a1.034,1.034,0,0,0,1.2,1.155c1.838-.019,2.708-.64,3.211-2.267a4.062,4.062,0,0,0,.161-1.217,3.387,3.387,0,0,0-4.1-4c-.416,0-.484.161-.478.522.019,1.068.006,2.136.006,3.2Z" transform="translate(-38.224 -169.033)" fill="#5d5e60"/>
    <path id="Trazado_382" data-name="Trazado 382" d="M147.532,206.958a6.939,6.939,0,0,1,.64-3.055,3.61,3.61,0,0,1,4.1-2.074c2.441.515,3.422,1.776,3.589,4.409a8.214,8.214,0,0,1-.192,2.434,4.018,4.018,0,0,1-7.881-.006,7.1,7.1,0,0,1-.267-1.708Zm6.738-.143v-.963a2.689,2.689,0,0,0-1.938-2.739c-1.745-.186-2.552.416-3.043,2.08a5.981,5.981,0,0,0,.075,3.54,2.6,2.6,0,0,0,2.229,1.975,2.554,2.554,0,0,0,2.515-1.906,7.155,7.155,0,0,0,.168-1.987Z" transform="translate(-55.908 -168.982)" fill="#606163"/>
    <path id="Trazado_383" data-name="Trazado 383" d="M27.331,205.769c0-1.068.043-2.136-.012-3.2-.037-.652.335-.559.733-.571.441-.019.727-.012.72.6-.012,2.031-.087,4.068.043,6.1a1.88,1.88,0,0,0,1.136,1.838,1.967,1.967,0,0,0,2.136-.323,3.081,3.081,0,0,0,.77-2.4c.025-1.714.037-3.422-.006-5.136-.012-.59.18-.714.714-.683.453.025.789-.019.758.64-.112,2.155.137,4.316-.137,6.465-.342,2.683-2.428,3.167-4.446,2.826a2.858,2.858,0,0,1-2.354-2.95c-.05-1.062-.012-2.13-.012-3.2h-.05Z" transform="translate(-10.352 -169.072)" fill="#5d5e60"/>
    <path id="Trazado_384" data-name="Trazado 384" d="M186.956,211.751c.658-2.031,1.3-4.055,1.962-6.074.341-1.062.727-2.105,1.018-3.18.155-.584.54-.553.963-.54s.838-.093,1.031.54c.888,2.882,1.844,5.751,2.764,8.626.068.217.366.621-.025.658-.435.043-1.068.4-1.348-.311a9.14,9.14,0,0,1-.416-1.348c-.093-.4-.255-.578-.7-.559-.894.037-1.789.031-2.677,0a.519.519,0,0,0-.615.466c-.056.242-.13.478-.2.714a1.391,1.391,0,0,1-1.764,1.006Zm3.937-8.315c-.5,1.689-.956,3.223-1.422,4.807h2.869c-.478-1.584-.938-3.118-1.441-4.807Z" transform="translate(-70.851 -169.061)" fill="#606163"/>
    <path id="Trazado_385" data-name="Trazado 385" d="M42.728,206.9c0-1.441.019-2.875-.012-4.316-.006-.46.124-.6.584-.584,1.41.031,2.826.037,4.242,0,.515-.012.553.217.54.615s.043.72-.559.689c-.913-.056-1.832,0-2.751-.019-.429-.012-.64.081-.609.565a11.028,11.028,0,0,1,0,1.633c-.043.5.174.578.6.559.671-.031,1.341.025,2.006-.019.484-.031.571.155.571.59s-.056.689-.6.646c-.664-.05-1.341,0-2.006-.019-.391-.012-.6.068-.578.522.031.77.025,1.54,0,2.3-.012.4.137.509.515.5.994-.019,1.987.031,2.975-.019.578-.031.559.267.571.677.012.429-.075.615-.565.6q-2.152-.047-4.316,0c-.478.012-.646-.118-.633-.621.031-1.435.012-2.875.012-4.316Z" transform="translate(-16.186 -169.078)" fill="#5d5e60"/>
    <path id="Trazado_386" data-name="Trazado 386" d="M116.7,206.9c0-1.441.019-2.875-.012-4.316-.006-.46.13-.59.59-.584,1.435.031,2.875.037,4.316,0,.515-.012.565.23.559.621-.012.366,0,.677-.54.658-.994-.031-1.981.019-2.975,0-.379,0-.534.1-.515.5a17.05,17.05,0,0,1,0,1.782c-.025.428.174.484.528.478.72-.019,1.441.025,2.155-.019.528-.031.453.3.453.615s.075.646-.453.621c-.714-.037-1.441,0-2.155-.013-.366-.012-.54.068-.528.484.031.795.031,1.59,0,2.379-.019.422.174.491.534.484.994-.019,1.987.031,2.975-.019.621-.031.5.335.534.7.043.422-.081.559-.515.553-1.466-.025-2.925-.031-4.391,0-.5.012-.565-.211-.559-.621.012-1.441,0-2.875,0-4.316Z" transform="translate(-44.224 -169.078)" fill="#5d5e60"/>
    <path id="Trazado_387" data-name="Trazado 387" d="M56.492,211.914a8.508,8.508,0,0,1-2.056-.292c-.4-.1-.5-.3-.342-.609s.062-.925.714-.658a4.919,4.919,0,0,0,2.118.236,1.664,1.664,0,0,0,1.689-1.788,1.118,1.118,0,0,0-.677-1.093c-.876-.484-1.857-.739-2.708-1.292a2.345,2.345,0,0,1-.919-2.534A2.01,2.01,0,0,1,55.7,202.1a6.23,6.23,0,0,1,3.72-.05c.814.217.2.665.211.981.012.4-.248.261-.54.211a4.616,4.616,0,0,0-2.31-.143,1.181,1.181,0,0,0-.491,2.142,5.4,5.4,0,0,0,1.844.888c1.857.733,2.546,2.037,1.975,3.776a2.986,2.986,0,0,1-2.646,1.95,8.262,8.262,0,0,1-.963.062Z" transform="translate(-20.473 -169)" fill="#606163"/>
    <path id="Trazado_388" data-name="Trazado 388" d="M14.581,206.827c0-1.341.031-2.683-.012-4.024-.019-.627.087-.863.814-.894a10.482,10.482,0,0,1,2.788.025c1.714.373,2.478,1.441,2.4,3.428a3,3,0,0,1-2.745,2.826,7.186,7.186,0,0,1-1.267.031c-.441-.031-.621.093-.6.571.037.795-.025,1.59.025,2.385.037.6-.273.609-.72.615-.491.012-.708-.093-.7-.646.037-1.441.012-2.881.012-4.322ZM15.972,205v1.559c0,.168-.025.329.193.428a2.249,2.249,0,0,0,2.913-1.627c.18-1.571-.609-2.335-2.354-2.354-.553,0-.845.112-.764.739a10.66,10.66,0,0,1,.012,1.261Z" transform="translate(-5.521 -169.012)" fill="#5d5e60"/>
    <path id="Trazado_389" data-name="Trazado 389" d="M181.289,208.733a2.717,2.717,0,0,1-2.5,3.049,7.546,7.546,0,0,1-3.161-.161c-.577-.143-.428-.46-.329-.838s.2-.64.7-.441a4.626,4.626,0,0,0,2.273.211,1.626,1.626,0,0,0,1.534-1.285,1.487,1.487,0,0,0-1.006-1.77c-.627-.3-1.286-.528-1.907-.826a2.334,2.334,0,0,1-1.435-2.658,2.362,2.362,0,0,1,1.919-2.1,6.416,6.416,0,0,1,3.161.093c.571.143.329.5.279.807-.056.329-.192.534-.609.379a4.143,4.143,0,0,0-1.906-.217c-.621.074-1.174.286-1.329.987a1.272,1.272,0,0,0,.795,1.509c.646.317,1.317.559,1.969.863a2.195,2.195,0,0,1,1.553,2.4Z" transform="translate(-66.402 -168.986)" fill="#606163"/>
    <path id="Trazado_390" data-name="Trazado 390" d="M69.993,207.566c0,1.242-.031,2.478.012,3.72.019.565-.261.59-.677.571-.391-.019-.782.087-.776-.565.031-2.428,0-4.856.025-7.284,0-.534-.118-.783-.7-.714-.366.044-.751-.037-1.112.019-.751.118-.851-.267-.814-.882.025-.335.13-.416.441-.41,1.907.012,3.819.019,5.726,0,.5,0,.422.311.4.59s.2.708-.373.7h-.522a1.46,1.46,0,0,0-1.633,1.671v2.6Z" transform="translate(-24.994 -169.086)" fill="#5d5e60"/>
    <path id="Trazado_391" data-name="Trazado 391" d="M164.7,206.854c0-1.441.031-2.881-.012-4.322-.025-.671.379-.553.77-.565s.7-.044.689.559c-.037,2.434,0,4.869-.031,7.3-.006.559.13.733.7.7.869-.05,1.739.013,2.608-.025.571-.025.559.3.571.7.012.435-.1.621-.578.615-1.391-.031-2.782-.025-4.173,0-.441.006-.546-.161-.546-.565.019-1.466.006-2.931,0-4.4Z" transform="translate(-62.415 -169.064)" fill="#5d5e60"/>
  </g>
</svg>
