<?xml version="1.0" encoding="UTF-8"?><svg id="Layer_2" xmlns="http://www.w3.org/2000/svg" viewBox="0 0 405.11 86.7"><defs><style>.cls-1{fill:#ffb900;}.cls-2{fill:#f25022;}.cls-3{fill:#00a4ef;}.cls-4{fill:#737373;}.cls-5{fill:#7fba00;}</style></defs><g id="Layer_1-2"><path class="cls-3" d="m20.72,45.37c6.3,0,12.6,0,18.89,0q1.73,0,1.74,1.78c0,12.56,0,25.11,0,37.67,0,1.86-.02,1.87-1.92,1.87-12.52,0-25.04,0-37.55,0-1.81,0-1.85-.04-1.85-1.82,0-12.6,0-25.19,0-37.79,0-1.7.01-1.71,1.69-1.71,6.34,0,12.67,0,19.01,0Z"/><path class="cls-1" d="m66.09,45.35c6.18,0,12.36,0,18.54,0,.2,0,.39,0,.59,0,1.37.02,1.45.08,1.45,1.48,0,9.35,0,18.7,0,28.05,0,3.29,0,6.57,0,9.86,0,.35,0,.7-.02,1.06-.02.57-.34.85-.89.87-.35.02-.7.02-1.06.02-12.48,0-24.96,0-37.44,0-1.91,0-1.92-.02-1.92-1.87,0-12.56,0-25.11,0-37.67q0-1.79,1.85-1.79c6.3,0,12.6,0,18.89,0Z"/><path class="cls-2" d="m20.8,0c6.18,0,12.37,0,18.55,0,.31,0,.63,0,.94,0,.9.04,1.01.15,1.07,1.02.02.27,0,.55,0,.82,0,12.48,0,24.97,0,37.45q0,1.91-1.96,1.91c-12.52,0-25.05,0-37.57,0q-1.83,0-1.84-1.8C0,26.86,0,14.3,0,1.73,0,0,0,0,1.78,0c6.34,0,12.68,0,19.02,0Z"/><path class="cls-5" d="m66.05.01c6.18,0,12.36,0,18.54,0,.35,0,.7-.01,1.06,0,.86.05.98.17,1.03,1.06.02.27,0,.55,0,.82,0,12.48,0,24.95,0,37.43q0,1.88-1.88,1.88c-12.56,0-25.11,0-37.67,0q-1.8,0-1.8-1.84c0-12.52,0-25.03,0-37.55,0-.08,0-.16,0-.23.01-1.54.05-1.58,1.58-1.58,6.38,0,12.75,0,19.13,0Z"/><path class="cls-4" d="m140.63,55.16c.54-1.29,1.09-2.58,1.62-3.88,4.4-10.8,8.8-21.59,13.19-32.39q.62-1.51,2.19-1.51c1.68,0,3.37,0,5.05,0,1.49,0,2.97,0,4.46,0,1.43,0,1.49.07,1.5,1.55,0,.16,0,.31,0,.47,0,16,0,32.01,0,48.01q0,1.95-1.92,1.95c-1.96,0-3.91,0-5.87,0-1.31,0-1.4-.09-1.4-1.41,0-5.99,0-11.97,0-17.96,0-6.26,0-12.52,0-18.78v-1.48c-.42.46-.51.87-.66,1.24-4.89,12.33-9.78,24.66-14.67,36.98-.56,1.4-.56,1.4-2.04,1.41-1.17,0-2.35,0-3.52,0q-1.45,0-1.98-1.32c-2.69-6.68-5.38-13.35-8.07-20.03-2.34-5.8-4.69-11.61-7.04-17.41-.07-.18-.15-.35-.3-.68-.29.56-.19,1.02-.19,1.45,0,11.97,0,23.95,0,35.92,0,.39,0,.78-.01,1.17,0,.56-.26.89-.85.89-2.31,0-4.62,0-6.93,0-.57,0-.86-.32-.88-.88-.02-.35-.02-.7-.02-1.06,0-16.04,0-32.09,0-48.13q0-1.9,1.86-1.9c3.29,0,6.57,0,9.86,0,1.4,0,1.39.01,1.89,1.26,3.99,10.08,7.98,20.15,11.97,30.23.66,1.67,1.31,3.35,1.97,5.02.17.43.36.85.54,1.27.08,0,.17,0,.25,0Z"/><path class="cls-4" d="m374.35,54.34c0,4.34,0,8.69,0,13.03,0,.35.02.71-.01,1.06-.06.72-.2.89-.95.9-2.39.02-4.77.03-7.16,0-.85,0-.98-.18-1.02-1.07-.02-.35,0-.7,0-1.06,0-8.69,0-17.38,0-26.07q0-1.83-1.78-1.83c-1.1,0-2.19.02-3.29-.01-.87-.02-1.02-.17-1.03-1.05-.03-1.76-.03-3.52,0-5.28.01-.8.18-.95.99-.98,1.29-.03,2.58,0,3.87-.02,1.11-.02,1.2-.12,1.23-1.21.05-1.91-.05-3.83.18-5.74.76-6.36,5.42-10.86,11.79-11.41,1.86-.16,3.67-.05,5.48.28,1.25.23,1.36.38,1.37,1.61,0,1.8.02,3.6,0,5.4-.01.89-.16.99-.97.69-1.27-.48-2.57-.67-3.91-.6-2,.11-3.38,1.1-4.17,2.92-.33.76-.53,1.56-.55,2.39-.03,1.53-.04,3.05-.03,4.58.01.96.14,1.09,1.1,1.1,3.56.02,7.12.02,10.68,0,.95,0,1.06-.13,1.07-1.11.02-2,0-3.99.01-5.99,0-1.19.03-1.24,1.13-1.59,2.24-.71,4.48-1.4,6.73-2.07.94-.28,1.1-.16,1.11.85.02,2.78,0,5.56.01,8.34,0,1.56.02,1.58,1.56,1.58,1.96,0,3.91,0,5.87,0,1.33,0,1.44.13,1.46,1.51.01,1.49.01,2.97,0,4.46-.01,1.26-.11,1.35-1.33,1.36-1.96.01-3.91,0-5.87,0-.31,0-.63,0-.94.02-.47.01-.72.26-.73.73,0,.27-.02.55-.02.82,0,5.24,0,10.49,0,15.73,0,.98.04,1.95.27,2.91.48,1.98,1.79,3.06,3.83,3.2,1.36.09,2.64-.21,3.85-.82.71-.35.91-.25.92.56.03,1.84,0,3.68,0,5.52,0,.62-.32,1.01-.9,1.23-.96.37-1.95.57-2.95.75-2.46.44-4.91.36-7.31-.37-3.81-1.15-5.67-3.94-6.42-7.66-.23-1.16-.28-2.33-.28-3.5,0-5.71,0-11.43,0-17.14,0-.27,0-.55,0-.82-.03-1.03-.12-1.14-1.16-1.14-2.97-.01-5.95,0-8.92,0-.55,0-1.1-.01-1.64,0-1.02.03-1.12.13-1.14,1.18-.02,1.13,0,2.27,0,3.4,0,3.48,0,6.97,0,10.45Z"/><path class="cls-4" d="m358.42,50.09c.11,3.51-.45,6.77-1.9,9.83-2.6,5.49-6.98,8.72-12.9,9.86-3.38.65-6.78.65-10.13-.2-6.76-1.71-11.03-5.99-12.74-12.73-1.14-4.5-.98-9.03.46-13.44,1.95-5.99,6.03-9.86,12.13-11.51,4.16-1.12,8.37-1.2,12.53-.08,6.66,1.8,10.52,6.29,12.04,12.92.41,1.8.59,3.63.5,5.35Zm-9.22.47c.04-1.54-.16-3.05-.5-4.54-.49-2.1-1.39-3.98-3.08-5.4-2.48-2.08-5.4-2.4-8.41-1.87-3.83.68-6.08,3.2-7.13,6.82-.9,3.1-.9,6.27-.23,9.4.65,3.04,2.19,5.51,5.14,6.87,1.91.88,3.93,1.06,5.97.83,3.33-.38,5.75-2.05,7.06-5.23.91-2.21,1.13-4.54,1.19-6.89Z"/><path class="cls-4" d="m249.38,51.03c-.1-2.68.24-5.23,1.08-7.7,1.9-5.6,5.62-9.43,11.3-11.19,4.79-1.49,9.64-1.56,14.43.01,5.24,1.72,8.72,5.3,10.39,10.52,1.64,5.13,1.67,10.36-.12,15.46-2.32,6.59-7.05,10.46-13.91,11.69-3.47.62-6.93.55-10.34-.39-6.3-1.75-10.31-5.81-12.1-12.08-.6-2.09-.83-4.22-.73-6.32Zm28.93-.35c.1-2.35-.13-4.71-1.16-6.93-1.19-2.56-3.13-4.24-5.9-4.94-.96-.24-1.94-.25-2.91-.24-4.23.04-7.38,2.18-8.76,6.16-1.36,3.92-1.4,7.91-.02,11.85,1.05,3.01,3.13,5.01,6.25,5.82,1.72.45,3.48.43,5.23.12,2.69-.49,4.64-1.94,5.89-4.37.38-.73.63-1.51.86-2.3.48-1.67.58-3.38.53-5.17Z"/><path class="cls-4" d="m291.64,63.84c0-1.1-.01-2.19,0-3.29.02-1,.15-1.08.98-.57,1.4.88,2.84,1.63,4.42,2.16,2.03.67,4.1.97,6.24.81.67-.05,1.32-.18,1.95-.41,2.41-.87,3.05-3.98,1.17-5.74-.52-.48-1.11-.86-1.74-1.19-1.42-.75-2.9-1.37-4.37-2-1.59-.68-3.11-1.47-4.53-2.45-2.61-1.8-3.85-4.36-4.08-7.45-.39-5.07,1.88-8.67,6.33-10.92,3.08-1.56,6.39-1.99,9.81-1.63,1.83.2,3.64.51,5.4,1.05,1.23.38,1.29.47,1.29,1.73,0,1.96.01,3.91,0,5.87,0,.98-.18,1.08-1,.59-1.6-.96-3.32-1.56-5.14-1.91-1.4-.26-2.81-.28-4.21-.11-2.67.32-4.06,2.57-3.19,5.01.29.82.84,1.39,1.58,1.82,1.36.79,2.78,1.44,4.23,2.03,2.29.93,4.5,2,6.4,3.63,2.41,2.05,3.4,4.73,3.35,7.81-.03,1.77-.38,3.5-1.3,5.06-1.46,2.5-3.6,4.2-6.29,5.2-3.92,1.46-7.94,1.57-12.01.74-1.34-.27-2.67-.59-3.96-1.06-1.26-.46-1.32-.55-1.33-1.86,0-.98,0-1.96,0-2.93Z"/><path class="cls-4" d="m220.8,37.25c0,1.1.02,2.19,0,3.29-.02.99-.17,1.08-.99.54-1.65-1.09-3.41-1.94-5.36-2.29-7.51-1.33-12.34,3.15-13.38,9.09-.42,2.43-.35,4.84.29,7.21,1.24,4.6,4.91,7.45,9.68,7.65,3.15.13,5.9-.96,8.54-2.51.32-.19.63-.64,1.01-.43.38.21.2.71.2,1.09.01,1.84-.04,3.68.03,5.52.04.98-.36,1.5-1.21,1.89-1.87.85-3.82,1.39-5.84,1.68-3.13.45-6.25.36-9.31-.49-6.54-1.83-10.65-6.17-12.27-12.67-1.3-5.23-.83-10.42,1.5-15.35,2.2-4.65,5.83-7.69,10.68-9.27,4.83-1.57,9.7-1.5,14.54.06.33.11.66.25.99.37.63.23.92.65.9,1.34-.03,1.1,0,2.19,0,3.29h0Z"/><path class="cls-4" d="m236.29,37.69c.21-.4.43-.8.64-1.19,2.14-3.98,6.41-5.93,10.81-4.93,1.05.24,1.23.43,1.24,1.5.01,2.23.01,4.46,0,6.69,0,1.05-.05,1.06-1.05.62-1.68-.76-3.45-1.03-5.27-.79-1.95.26-3.36,1.42-4.45,2.98-1.04,1.47-1.61,3.14-1.84,4.9-.17,1.27-.28,2.56-.28,3.86.01,5.24,0,10.49,0,15.73,0,.31,0,.63,0,.94-.02,1.25-.11,1.35-1.33,1.36-1.96.01-3.91,0-5.87,0-.23,0-.47,0-.7,0-.84-.06-.99-.21-1.05-1.08-.02-.27-.01-.55-.01-.82,0-11.19,0-22.38,0-33.57,0-1.89.01-1.9,1.89-1.9,1.76,0,3.52,0,5.28,0q1.79,0,1.79,1.85c0,1.27,0,2.55,0,3.82.07.02.14.03.2.05Z"/><path class="cls-4" d="m176.81,50.54c0-5.48,0-10.95,0-16.43,0-.31,0-.63,0-.94.03-1.04.14-1.18,1.14-1.19,2.23-.02,4.46-.02,6.69,0,.99,0,1.11.16,1.14,1.19.02.59,0,1.17,0,1.76,0,10.84,0,21.67,0,32.51q0,1.9-1.85,1.91c-1.84,0-3.68,0-5.52,0-1.59,0-1.61-.03-1.61-1.67,0-5.71,0-11.42,0-17.14Z"/><path class="cls-4" d="m181.3,26.4c-2.63,0-4.63-1.49-5.19-3.85-.65-2.76,1.01-5.52,3.82-6.18,2.11-.5,4.06-.1,5.55,1.6,1.39,1.59,1.71,3.46.89,5.36-.82,1.89-2.38,2.94-4.49,3.07-.19.01-.39,0-.59,0Z"/></g></svg>