<?xml version="1.0" encoding="utf-8"?>
<!-- Generator: Adobe Illustrator 27.6.1, SVG Export Plug-In . SVG Version: 6.00 Build 0)  -->
<svg version="1.1" id="Layer_1" xmlns="http://www.w3.org/2000/svg" xmlns:xlink="http://www.w3.org/1999/xlink" x="0px" y="0px"
	 viewBox="0 0 512 512" style="enable-background:new 0 0 512 512;" xml:space="preserve">
<style type="text/css">
	.st0{fill:#F2F2F2;}
	.st1{fill:#1A2433;}
</style>
<g>
	<path class="st0" d="M261.6,478.3L261.6,478.3c122.8,0,222.3-99.5,222.3-222.3v0c0-122.8-99.5-222.3-222.3-222.3h0
		C138.8,33.7,39.3,133.2,39.3,256v0C39.3,378.8,138.8,478.3,261.6,478.3z"/>
	<path class="st1" d="M141.2,162.8c0-17.1,13.9-31.1,31.1-31.1h77.7v62.1c0,8.6,6.9,15.5,15.5,15.5h62.1v69.9h-101
		c-17.1,0-31.1,13.9-31.1,31.1v69.9h-23.3c-17.1,0-31.1-13.9-31.1-31.1V162.8z M327.6,193.9h-62.1v-62.1L327.6,193.9z M226.6,302.6
		h15.5c15,0,27.2,12.2,27.2,27.2S257.2,357,242.2,357h-7.8v15.5c0,4.3-3.5,7.8-7.8,7.8c-4.3,0-7.8-3.5-7.8-7.8v-23.3v-38.8
		C218.9,306.1,222.4,302.6,226.6,302.6z M242.2,341.5c6.5,0,11.7-5.2,11.7-11.7s-5.2-11.7-11.7-11.7h-7.8v23.3H242.2z M288.8,302.6
		h15.5c12.9,0,23.3,10.4,23.3,23.3V357c0,12.9-10.4,23.3-23.3,23.3h-15.5c-4.3,0-7.8-3.5-7.8-7.8v-62.1
		C281,306.1,284.5,302.6,288.8,302.6z M304.3,364.8c4.3,0,7.8-3.5,7.8-7.8v-31.1c0-4.3-3.5-7.8-7.8-7.8h-7.8v46.6H304.3z
		 M343.2,310.4c0-4.3,3.5-7.8,7.8-7.8h23.3c4.3,0,7.8,3.5,7.8,7.8c0,4.3-3.5,7.8-7.8,7.8h-15.5v15.5h15.5c4.3,0,7.8,3.5,7.8,7.8
		c0,4.3-3.5,7.8-7.8,7.8h-15.5v23.3c0,4.3-3.5,7.8-7.8,7.8c-4.3,0-7.8-3.5-7.8-7.8v-31.1V310.4z"/>
</g>
</svg>
